<?xml version="1.0" encoding="UTF-8" standalone="no"?>
<!-- Created with Inkscape (http://www.inkscape.org/) -->

<svg
   version="1.1"
   id="svg1"
   width="528"
   height="469.33334"
   viewBox="0 0 528 469.33334"
   sodipodi:docname="Fig4.eps"
   xml:space="preserve"
   inkscape:version="1.3.2 (091e20e, 2023-11-25)"
   xmlns:inkscape="http://www.inkscape.org/namespaces/inkscape"
   xmlns:sodipodi="http://sodipodi.sourceforge.net/DTD/sodipodi-0.dtd"
   xmlns="http://www.w3.org/2000/svg"
   xmlns:svg="http://www.w3.org/2000/svg"><defs
     id="defs1"><marker
       style="overflow:visible"
       id="Triangle"
       refX="0"
       refY="0"
       orient="auto-start-reverse"
       inkscape:stockid="Triangle arrow"
       markerWidth="1"
       markerHeight="1"
       viewBox="0 0 1 1"
       inkscape:isstock="true"
       inkscape:collect="always"
       preserveAspectRatio="xMidYMid"><path
         transform="scale(0.5)"
         style="fill:context-stroke;fill-rule:evenodd;stroke:context-stroke;stroke-width:1pt"
         d="M 5.77,0 -2.88,5 V -5 Z"
         id="path135" /></marker><clipPath
       id="RfIsSycofQch"><path
         fill="none"
         stroke="none"
         d=" M 0 0 L 301 0 L 301 363 L 0 363 L 0 0 Z"
         id="path1-3" /></clipPath></defs><sodipodi:namedview
     id="namedview1"
     pagecolor="#ffffff"
     bordercolor="#000000"
     borderopacity="0.25"
     inkscape:showpageshadow="2"
     inkscape:pageopacity="0.0"
     inkscape:pagecheckerboard="0"
     inkscape:deskcolor="#d1d1d1"
     inkscape:zoom="1.1651191"
     inkscape:cx="271.2169"
     inkscape:cy="230.87768"
     inkscape:window-width="1600"
     inkscape:window-height="773"
     inkscape:window-x="96"
     inkscape:window-y="25"
     inkscape:window-maximized="0"
     inkscape:current-layer="g1"><inkscape:page
       x="0"
       y="0"
       inkscape:label="1"
       id="page1"
       width="528"
       height="469.33334"
       margin="0"
       bleed="0" /></sodipodi:namedview><g
     id="g1"
     inkscape:groupmode="layer"
     inkscape:label="1"><path
       id="path1"
       d="M 751.5,512 H 783 m 2824.5,0 H 3576"
       style="fill:none;stroke:#000000;stroke-width:5;stroke-linecap:butt;stroke-linejoin:miter;stroke-miterlimit:3.8;stroke-dasharray:none;stroke-opacity:1"
       transform="matrix(0.13333333,0,0,-0.13333333,0,469.33333)" /><path
       id="path2"
       d="m 0.66680938,-5.6488719 c 0,-1.3505859 0.13476562,-2.4375 0.41015622,-3.2578125 0.28125,-0.8261718 0.694336,-1.4648436 1.2421875,-1.9101566 0.553711,-0.451171 1.2451172,-0.679687 2.0742188,-0.679687 0.6152344,0 1.1542969,0.125976 1.6171875,0.375 0.46875,0.243164 0.8496094,0.597656 1.1484375,1.066406 0.3046875,0.4687501 0.5419922,1.0400392 0.7148437,1.7109376 0.1699219,0.6650391 0.2578125,1.5644532 0.2578125,2.6953125 0,1.3447266 -0.140625,2.4316407 -0.421875,3.2578125 -0.2753906,0.8203125 -0.6855468,1.4589844 -1.2304687,1.91015628 -0.5478516,0.45410156 -1.2421875,0.6796875 -2.0859375,0.6796875 -1.1015625,0 -1.96875,-0.3984375 -2.6015625,-1.1953125 -0.75,-0.95214848 -1.12500002,-2.50195308 -1.12500002,-4.65234378 z m 1.44140622,0 c 0,1.8837891 0.2167969,3.1376953 0.65625,3.7617188 0.4453125,0.618164 0.9873047,0.92578123 1.6289063,0.92578123 0.6474609,0 1.1894531,-0.31054683 1.6289062,-0.93750003 0.4453125,-0.6240234 0.6679688,-1.875 0.6679688,-3.75 0,-1.8808593 -0.2226563,-3.1318359 -0.6679688,-3.75 -0.4394531,-0.6240231 -0.984375,-0.9375001 -1.640625,-0.9375001 -0.6503906,0 -1.1660156,0.275391 -1.546875,0.8203126 -0.4863281,0.703125 -0.7265625,1.9921875 -0.7265625,3.8671875 z M 10.349427,-4.34375e-4 V -1.6059031 h 1.605468 V -4.34375e-4 Z M 14.011536,-5.6488719 c 0,-1.3505859 0.134766,-2.4375 0.410156,-3.2578125 0.28125,-0.8261718 0.694336,-1.4648436 1.242188,-1.9101566 0.553711,-0.451171 1.245117,-0.679687 2.074218,-0.679687 0.615235,0 1.154297,0.125976 1.617188,0.375 0.46875,0.243164 0.849609,0.597656 1.148437,1.066406 0.304688,0.4687501 0.541993,1.0400392 0.714844,1.7109376 0.169922,0.6650391 0.257813,1.5644532 0.257813,2.6953125 0,1.3447266 -0.140625,2.4316407 -0.421875,3.2578125 -0.275391,0.8203125 -0.685547,1.4589844 -1.230469,1.91015628 -0.547852,0.45410156 -1.242188,0.6796875 -2.085938,0.6796875 -1.101562,0 -1.96875,-0.3984375 -2.601562,-1.1953125 -0.75,-0.95214848 -1.125,-2.50195308 -1.125,-4.65234378 z m 1.441406,0 c 0,1.8837891 0.216797,3.1376953 0.65625,3.7617188 0.445313,0.618164 0.987305,0.92578123 1.628906,0.92578123 0.647461,0 1.189454,-0.31054683 1.628907,-0.93750003 0.445312,-0.6240234 0.667968,-1.875 0.667968,-3.75 0,-1.8808593 -0.222656,-3.1318359 -0.667968,-3.75 -0.439453,-0.6240231 -0.984375,-0.9375001 -1.640625,-0.9375001 -0.650391,0 -1.166016,0.275391 -1.546875,0.8203126 -0.486328,0.703125 -0.726563,1.9921875 -0.726563,3.8671875 z m 0,0"
       style="fill:#000000;fill-opacity:1;fill-rule:nonzero;stroke:none"
       aria-label="0.0"
       transform="matrix(1.3333333,0,0,1.3333333,57.743733,408.18027)" /><path
       id="path3"
       d="M 751.5,750 H 767 m 2840.5,0 H 3592 M 751.5,988 H 783 m 2824.5,0 H 3576"
       style="fill:none;stroke:#000000;stroke-width:5;stroke-linecap:butt;stroke-linejoin:miter;stroke-miterlimit:3.8;stroke-dasharray:none;stroke-opacity:1"
       transform="matrix(0.13333333,0,0,-0.13333333,0,469.33333)" /><path
       id="path4"
       d="m 0.66680938,-5.6475047 c 0,-1.3505859 0.13476562,-2.4375 0.41015622,-3.2578125 0.28125,-0.8261719 0.694336,-1.4648438 1.2421875,-1.9101558 0.553711,-0.451172 1.2451172,-0.679688 2.0742188,-0.679688 0.6152344,0 1.1542969,0.125977 1.6171875,0.375 0.46875,0.243164 0.8496094,0.597656 1.1484375,1.066406 0.3046875,0.4687503 0.5419922,1.0400394 0.7148437,1.7109378 0.1699219,0.6650391 0.2578125,1.5644531 0.2578125,2.6953125 0,1.3447266 -0.140625,2.4316406 -0.421875,3.2578125 -0.2753906,0.8203125 -0.6855468,1.45898439 -1.2304687,1.91015626 -0.5478516,0.45410157 -1.2421875,0.6796875 -2.0859375,0.6796875 -1.1015625,0 -1.96875,-0.3984375 -2.6015625,-1.1953125 -0.75,-0.95214846 -1.12500002,-2.50195316 -1.12500002,-4.65234376 z m 1.44140622,0 c 0,1.8837891 0.2167969,3.1376953 0.65625,3.7617188 0.4453125,0.618164 0.9873047,0.92578121 1.6289063,0.92578121 0.6474609,0 1.1894531,-0.31054691 1.6289062,-0.93750001 0.4453125,-0.6240234 0.6679688,-1.875 0.6679688,-3.75 0,-1.8808594 -0.2226563,-3.1318359 -0.6679688,-3.75 -0.4394531,-0.6240233 -0.984375,-0.9375003 -1.640625,-0.9375003 -0.6503906,0 -1.1660156,0.275391 -1.546875,0.8203128 -0.4863281,0.703125 -0.7265625,1.9921875 -0.7265625,3.8671875 z M 10.349427,9.328125e-4 V -1.6045359 h 1.605468 V 9.328125e-4 Z M 21.394348,-1.3467234 V 9.328125e-4 h -7.570312 c -0.0088,-0.3339843725 0.04687,-0.6591796825 0.164062,-0.9726562525 0.19336,-0.51562496 0.503907,-1.02246096 0.925782,-1.52343746 0.427734,-0.4980469 1.042968,-1.078125 1.839843,-1.734375 1.248047,-1.022461 2.091797,-1.8310547 2.53125,-2.4257813 0.436524,-0.6005859 0.65625,-1.1630859 0.65625,-1.6875 0,-0.5625 -0.199218,-1.0341797 -0.597656,-1.4179687 -0.398437,-0.3808591 -0.919922,-0.5742191 -1.558594,-0.5742191 -0.679687,0 -1.224609,0.205078 -1.628906,0.6093753 -0.407226,0.4072266 -0.615234,0.9697266 -0.621094,1.6875 l -1.441406,-0.140625 c 0.09961,-1.078125 0.47168,-1.8984373 1.113281,-2.4609373 0.647461,-0.56836 1.514649,-0.855469 2.601563,-0.855469 1.101562,0 1.97168,0.304688 2.613281,0.914063 0.638672,0.6093746 0.960938,1.3652339 0.960938,2.2617183 0,0.4628906 -0.09375,0.9140625 -0.28125,1.359375 -0.1875,0.4394531 -0.500977,0.9023438 -0.9375,1.3945313 -0.430664,0.4863281 -1.154297,1.1572265 -2.167969,2.015625 -0.84375,0.703125 -1.388672,1.1835937 -1.628906,1.4414062 -0.234375,0.2519531 -0.430664,0.5039063 -0.585938,0.7617188 z m 0,0"
       style="fill:#000000;fill-opacity:1;fill-rule:nonzero;stroke:none"
       aria-label="0.2"
       transform="matrix(1.3333333,0,0,1.3333333,57.743733,344.7136)" /><path
       id="path5"
       d="M 751.5,1226 H 767 m 2840.5,0 H 3592 M 751.5,1464 H 783 m 2824.5,0 H 3576"
       style="fill:none;stroke:#000000;stroke-width:5;stroke-linecap:butt;stroke-linejoin:miter;stroke-miterlimit:3.8;stroke-dasharray:none;stroke-opacity:1"
       transform="matrix(0.13333333,0,0,-0.13333333,0,469.33333)" /><path
       id="path6"
       d="m 0.66680938,-5.6488672 c 0,-1.3505859 0.13476562,-2.4375 0.41015622,-3.2578125 0.28125,-0.8261719 0.694336,-1.4648433 1.2421875,-1.9101563 0.553711,-0.451172 1.2451172,-0.679687 2.0742188,-0.679687 0.6152344,0 1.1542969,0.125976 1.6171875,0.375 0.46875,0.243164 0.8496094,0.597656 1.1484375,1.066406 0.3046875,0.4687498 0.5419922,1.0400389 0.7148437,1.7109373 0.1699219,0.6650391 0.2578125,1.5644531 0.2578125,2.6953125 0,1.3447266 -0.140625,2.4316406 -0.421875,3.2578125 -0.2753906,0.8203125 -0.6855468,1.45898439 -1.2304687,1.91015626 -0.5478516,0.45410156 -1.2421875,0.6796875 -2.0859375,0.6796875 -1.1015625,0 -1.96875,-0.3984375 -2.6015625,-1.1953125 -0.75,-0.95214846 -1.12500002,-2.50195316 -1.12500002,-4.65234376 z m 1.44140622,0 c 0,1.8837891 0.2167969,3.1376953 0.65625,3.7617188 0.4453125,0.618164 0.9873047,0.92578121 1.6289063,0.92578121 0.6474609,0 1.1894531,-0.31054691 1.6289062,-0.93750001 0.4453125,-0.6240234 0.6679688,-1.875 0.6679688,-3.75 0,-1.8808594 -0.2226563,-3.1318359 -0.6679688,-3.75 -0.4394531,-0.6240238 -0.984375,-0.9374998 -1.640625,-0.9374998 -0.6503906,0 -1.1660156,0.27539 -1.546875,0.8203123 -0.4863281,0.703125 -0.7265625,1.9921875 -0.7265625,3.8671875 z M 10.349427,-4.296875e-4 V -1.6058984 h 1.605468 v 1.6054687125 z m 8.162109,0 V -2.7426172 h -4.96875 v -1.2890625 l 5.226562,-7.4179683 h 1.148438 v 7.4179683 h 1.546875 v 1.2890625 h -1.546875 v 2.7421875125 z m 0,-4.0312500125 v -5.15625 l -3.585938,5.15625 z m 0,0"
       style="fill:#000000;fill-opacity:1;fill-rule:nonzero;stroke:none"
       aria-label="0.4"
       transform="matrix(1.3333333,0,0,1.3333333,57.743733,281.24667)" /><path
       id="path7"
       d="M 751.5,1702 H 767 m 2840.5,0 H 3592 M 751.5,1940 H 783 m 2824.5,0 H 3576"
       style="fill:none;stroke:#000000;stroke-width:5;stroke-linecap:butt;stroke-linejoin:miter;stroke-miterlimit:3.8;stroke-dasharray:none;stroke-opacity:1"
       transform="matrix(0.13333333,0,0,-0.13333333,0,469.33333)" /><path
       id="path8"
       d="m 0.66680938,-5.6475 c 0,-1.3505859 0.13476562,-2.4375 0.41015622,-3.2578125 0.28125,-0.8261719 0.694336,-1.4648435 1.2421875,-1.9101565 0.553711,-0.451172 1.2451172,-0.679687 2.0742188,-0.679687 0.6152344,0 1.1542969,0.125976 1.6171875,0.375 0.46875,0.243164 0.8496094,0.597656 1.1484375,1.066406 0.3046875,0.46875 0.5419922,1.0400391 0.7148437,1.7109375 0.1699219,0.6650391 0.2578125,1.5644531 0.2578125,2.6953125 0,1.3447266 -0.140625,2.4316406 -0.421875,3.2578125 -0.2753906,0.8203125 -0.6855468,1.45898437 -1.2304687,1.91015625 -0.5478516,0.45410156 -1.2421875,0.6796875 -2.0859375,0.6796875 -1.1015625,0 -1.96875,-0.3984375 -2.6015625,-1.1953125 C 1.0418094,-1.9473047 0.66680938,-3.4971094 0.66680938,-5.6475 Z m 1.44140622,0 c 0,1.8837891 0.2167969,3.1376953 0.65625,3.7617187 C 3.2097781,-1.2676172 3.7517703,-0.96 4.3933719,-0.96 c 0.6474609,0 1.1894531,-0.3105469 1.6289062,-0.9375 0.4453125,-0.6240234 0.6679688,-1.875 0.6679688,-3.75 0,-1.8808594 -0.2226563,-3.1318359 -0.6679688,-3.75 -0.4394531,-0.624023 -0.984375,-0.9375 -1.640625,-0.9375 -0.6503906,0 -1.1660156,0.275391 -1.546875,0.8203125 C 2.34845,-8.8115625 2.1082156,-7.5225 2.1082156,-5.6475 Z M 10.349427,9.375e-4 v -1.6054688 h 1.605468 V 9.375e-4 Z M 21.300598,-8.6475 19.906067,-8.5303125 C 19.780091,-9.0840234 19.604309,-9.4853906 19.378723,-9.7373438 18.994934,-10.135781 18.526184,-10.335 17.972473,-10.335 c -0.454101,0 -0.849609,0.125977 -1.183593,0.375 -0.445313,0.3222656 -0.796875,0.7910156 -1.054688,1.40625 -0.251953,0.6181641 -0.380859,1.5 -0.386719,2.6484375 0.333985,-0.515625 0.744141,-0.8964844 1.230469,-1.1484375 0.492188,-0.2490234 1.007813,-0.375 1.546875,-0.375 0.9375,0 1.734375,0.3486328 2.390625,1.0429687 0.65625,0.6884766 0.984375,1.5791016 0.984375,2.671875 0,0.7207032 -0.158203,1.3886719 -0.46875,2.0039063 -0.304687,0.6181641 -0.726562,1.08984375 -1.265625,1.41796875 -0.539062,0.328125 -1.154297,0.4921875 -1.839844,0.4921875 -1.171875,0 -2.129882,-0.42773438 -2.871093,-1.28906255 -0.744141,-0.8671875 -1.113282,-2.2880859 -1.113282,-4.265625 0,-2.2089843 0.410157,-3.8203125 1.230469,-4.8281247 0.708985,-0.873047 1.669922,-1.3125 2.882813,-1.3125 0.896484,0 1.634765,0.254883 2.214843,0.761718 0.577149,0.500977 0.919922,1.195313 1.03125,2.085938 z m -5.742187,4.9335937 c 0,0.4863282 0.09961,0.9492188 0.304687,1.3945313 0.210938,0.4453125 0.498047,0.7851562 0.867188,1.0195312 0.375,0.2285157 0.764648,0.3398438 1.171875,0.3398438 0.591797,0 1.101562,-0.2373047 1.523437,-0.7148438 0.427735,-0.4833984 0.644532,-1.1367187 0.644532,-1.9570312 0,-0.7880859 -0.210938,-1.4091797 -0.632813,-1.8632813 -0.421875,-0.4599609 -0.955078,-0.6914062 -1.59375,-0.6914062 -0.632812,0 -1.171875,0.2314453 -1.617187,0.6914062 -0.445313,0.4541016 -0.667969,1.0488282 -0.667969,1.78125 z m 0,0"
       style="fill:#000000;fill-opacity:1;fill-rule:nonzero;stroke:none"
       aria-label="0.6"
       transform="matrix(1.3333333,0,0,1.3333333,57.743733,217.78)" /><path
       id="path9"
       d="M 751.5,2177.5 H 767 m 2840.5,0 H 3592 m -2840.5,238 H 783 m 2824.5,0 H 3576"
       style="fill:none;stroke:#000000;stroke-width:5;stroke-linecap:butt;stroke-linejoin:miter;stroke-miterlimit:3.8;stroke-dasharray:none;stroke-opacity:1"
       transform="matrix(0.13333333,0,0,-0.13333333,0,469.33333)" /><path
       id="path10"
       d="m 0.66680938,-5.6492578 c 0,-1.350586 0.13476562,-2.4375 0.41015622,-3.2578125 0.28125,-0.8261719 0.694336,-1.4648437 1.2421875,-1.9101567 0.553711,-0.451171 1.2451172,-0.679687 2.0742188,-0.679687 0.6152344,0 1.1542969,0.125976 1.6171875,0.375 0.46875,0.243164 0.8496094,0.597656 1.1484375,1.066406 0.3046875,0.4687502 0.5419922,1.0400392 0.7148437,1.7109377 0.1699219,0.665039 0.2578125,1.5644531 0.2578125,2.6953125 0,1.3447265 -0.140625,2.4316406 -0.421875,3.2578125 -0.2753906,0.8203125 -0.6855468,1.45898436 -1.2304687,1.91015624 -0.5478516,0.45410156 -1.2421875,0.6796875 -2.0859375,0.6796875 -1.1015625,0 -1.96875,-0.3984375 -2.6015625,-1.1953125 -0.75,-0.95214844 -1.12500002,-2.50195314 -1.12500002,-4.65234374 z m 1.44140622,0 c 0,1.883789 0.2167969,3.1376953 0.65625,3.7617187 0.4453125,0.6181641 0.9873047,0.92578129 1.6289063,0.92578129 0.6474609,0 1.1894531,-0.31054689 1.6289062,-0.93749999 0.4453125,-0.6240235 0.6679688,-1.875 0.6679688,-3.75 0,-1.8808594 -0.2226563,-3.131836 -0.6679688,-3.75 -0.4394531,-0.6240232 -0.984375,-0.9375002 -1.640625,-0.9375002 -0.6503906,0 -1.1660156,0.275391 -1.546875,0.8203127 -0.4863281,0.703125 -0.7265625,1.9921875 -0.7265625,3.8671875 z M 10.349427,-8.203125e-4 V -1.6062891 h 1.605468 V -8.203125e-4 Z M 16.167786,-6.2117578 c -0.580078,-0.2109375 -1.007813,-0.515625 -1.289063,-0.9140625 -0.28125,-0.3984375 -0.421875,-0.8701172 -0.421875,-1.4179688 0,-0.8349609 0.295899,-1.5351559 0.890625,-2.0976559 0.600586,-0.56836 1.397461,-0.855469 2.390625,-0.855469 0.999024,0 1.804688,0.292969 2.414063,0.878906 0.609375,0.580078 0.914062,1.2832033 0.914062,2.1093752 0,0.5332031 -0.140625,0.9960937 -0.421875,1.3945312 -0.27539,0.3925782 -0.697265,0.6914063 -1.265625,0.9023438 0.703125,0.2285156 1.236329,0.5976562 1.605469,1.1132812 0.366211,0.5097657 0.550781,1.1191407 0.550781,1.828125 0,0.9785157 -0.348632,1.8017578 -1.042968,2.47265629 -0.688477,0.66503906 -1.59961,0.99609375 -2.730469,0.99609375 -1.125,0 -2.036133,-0.33398438 -2.730469,-1.0078125 -0.697265,-0.67089844 -1.042969,-1.50585934 -1.042969,-2.50781254 0,-0.7412109 0.1875,-1.3623047 0.5625,-1.8632812 0.38086,-0.506836 0.919922,-0.8496094 1.617188,-1.03125 z m -0.28125,-2.3789063 c 0,0.5390625 0.175781,0.9814453 0.527344,1.3242188 0.351562,0.3457031 0.802734,0.515625 1.359375,0.515625 0.539062,0 0.978515,-0.1669922 1.324218,-0.5039063 0.351563,-0.3427734 0.527344,-0.7617187 0.527344,-1.2539062 0,-0.515625 -0.18164,-0.9492188 -0.539062,-1.3007813 -0.351563,-0.3515629 -0.793946,-0.5273439 -1.324219,-0.5273439 -0.539063,0 -0.990234,0.172852 -1.347656,0.5156252 -0.351563,0.3457031 -0.527344,0.7558594 -0.527344,1.2304687 z m -0.445313,5.2851563 c 0,0.3984375 0.09375,0.7851562 0.28125,1.1601562 0.1875,0.375 0.46875,0.6679688 0.84375,0.8789063 0.375,0.2050781 0.779297,0.30468749 1.21875,0.30468749 0.670899,0 1.22461,-0.21386719 1.664063,-0.64453129 0.436523,-0.4365234 0.65625,-0.9873047 0.65625,-1.6523437 0,-0.6796875 -0.228516,-1.2363281 -0.679688,-1.6757813 -0.454101,-0.4453125 -1.016601,-0.6679687 -1.6875,-0.6679687 -0.665039,0 -1.21582,0.2197265 -1.652343,0.65625 -0.430664,0.4394531 -0.644532,0.984375 -0.644532,1.640625 z m 0,0"
       style="fill:#000000;fill-opacity:1;fill-rule:nonzero;stroke:none"
       aria-label="0.8"
       transform="matrix(1.3333333,0,0,1.3333333,57.743733,154.38)" /><path
       id="path11"
       d="M 751.5,2653.5 H 767 m 2840.5,0 H 3592 m -2840.5,238 H 783 m 2824.5,0 H 3576"
       style="fill:none;stroke:#000000;stroke-width:5;stroke-linecap:butt;stroke-linejoin:miter;stroke-miterlimit:3.8;stroke-dasharray:none;stroke-opacity:1"
       transform="matrix(0.13333333,0,0,-0.13333333,0,469.33333)" /><path
       id="path12"
       d="m 5.9636844,5.46875e-4 h -1.40625 V -8.9525781 c -0.3457031,0.3222656 -0.7910156,0.6416015 -1.3359375,0.9609375 -0.5478516,0.3222656 -1.0400391,0.5625 -1.4765625,0.7265625 v -1.359375 c 0.7792969,-0.366211 1.4648437,-0.8115235 2.0507812,-1.3359375 0.5917969,-0.5302734 1.0107422,-1.0429684 1.2539063,-1.5351564 h 0.9140625 z m 4.3857426,0 V -1.6049219 h 1.605468 V 5.46875e-4 Z M 14.011536,-5.6478906 c 0,-1.350586 0.134766,-2.4375 0.410156,-3.2578125 0.28125,-0.8261719 0.694336,-1.4648439 1.242188,-1.9101559 0.553711,-0.451172 1.245117,-0.679688 2.074218,-0.679688 0.615235,0 1.154297,0.125977 1.617188,0.375 0.46875,0.243164 0.849609,0.597656 1.148437,1.066406 0.304688,0.4687504 0.541993,1.0400394 0.714844,1.7109379 0.169922,0.665039 0.257813,1.5644531 0.257813,2.6953125 0,1.3447265 -0.140625,2.4316406 -0.421875,3.2578125 -0.275391,0.8203125 -0.685547,1.45898435 -1.230469,1.91015622 -0.547852,0.45410157 -1.242188,0.6796875 -2.085938,0.6796875 -1.101562,0 -1.96875,-0.3984375 -2.601562,-1.1953125 -0.75,-0.95214842 -1.125,-2.50195312 -1.125,-4.65234372 z m 1.441406,0 c 0,1.883789 0.216797,3.1376953 0.65625,3.7617187 0.445313,0.6181641 0.987305,0.92578127 1.628906,0.92578127 0.647461,0 1.189454,-0.31054687 1.628907,-0.93749997 0.445312,-0.6240235 0.667968,-1.875 0.667968,-3.75 0,-1.8808594 -0.222656,-3.131836 -0.667968,-3.75 -0.439453,-0.6240234 -0.984375,-0.9375004 -1.640625,-0.9375004 -0.650391,0 -1.166016,0.275391 -1.546875,0.8203129 -0.486328,0.703125 -0.726563,1.9921875 -0.726563,3.8671875 z m 0,0"
       style="fill:#000000;fill-opacity:1;fill-rule:nonzero;stroke:none"
       aria-label="1.0"
       transform="matrix(1.3333333,0,0,1.3333333,57.743733,90.913333)" /><path
       id="path13"
       d="M 751.5,3129.5 H 767 m 2840.5,0 H 3592 m -2840.5,238 H 783 m 2824.5,0 H 3576"
       style="fill:none;stroke:#000000;stroke-width:5;stroke-linecap:butt;stroke-linejoin:miter;stroke-miterlimit:3.8;stroke-dasharray:none;stroke-opacity:1"
       transform="matrix(0.13333333,0,0,-0.13333333,0,469.33333)" /><path
       id="path14"
       d="m 5.9636844,-0.00101563 h -1.40625 V -8.9541406 c -0.3457031,0.3222656 -0.7910156,0.6416015 -1.3359375,0.9609375 -0.5478516,0.3222656 -1.0400391,0.5625 -1.4765625,0.7265625 v -1.359375 c 0.7792969,-0.366211 1.4648437,-0.8115235 2.0507812,-1.3359375 0.5917969,-0.5302739 1.0107422,-1.0429689 1.2539063,-1.5351559 h 0.9140625 z m 4.3857426,0 V -1.6064844 h 1.605468 v 1.60546877 z M 21.394348,-1.3486719 v 1.34765627 h -7.570312 c -0.0088,-0.33398437 0.04687,-0.65917968 0.164062,-0.97265625 0.19336,-0.51562502 0.503907,-1.02246092 0.925782,-1.52343752 0.427734,-0.4980469 1.042968,-1.078125 1.839843,-1.734375 1.248047,-1.0224609 2.091797,-1.8310547 2.53125,-2.4257812 0.436524,-0.600586 0.65625,-1.163086 0.65625,-1.6875 0,-0.5625 -0.199218,-1.0341797 -0.597656,-1.4179688 -0.398437,-0.3808596 -0.919922,-0.5742186 -1.558594,-0.5742186 -0.679687,0 -1.224609,0.205078 -1.628906,0.6093749 -0.407226,0.4072265 -0.615234,0.9697265 -0.621094,1.6875 l -1.441406,-0.140625 c 0.09961,-1.078125 0.47168,-1.8984379 1.113281,-2.4609379 0.647461,-0.568359 1.514649,-0.855468 2.601563,-0.855468 1.101562,0 1.97168,0.304687 2.613281,0.914062 0.638672,0.6093751 0.960938,1.3652345 0.960938,2.2617189 0,0.4628906 -0.09375,0.9140625 -0.28125,1.359375 -0.1875,0.4394531 -0.500977,0.9023437 -0.9375,1.3945312 -0.430664,0.4863281 -1.154297,1.1572266 -2.167969,2.015625 -0.84375,0.703125 -1.388672,1.1835938 -1.628906,1.4414063 -0.234375,0.2519531 -0.430664,0.5039062 -0.585938,0.7617187 z m 0,0"
       style="fill:#000000;fill-opacity:1;fill-rule:nonzero;stroke:none"
       aria-label="1.2"
       transform="matrix(1.3333333,0,0,1.3333333,57.743733,27.446667)" /><path
       id="path15"
       d="m 779.5,512 v 31.5 m 0,2824 V 3336"
       style="fill:none;stroke:#000000;stroke-width:5;stroke-linecap:butt;stroke-linejoin:miter;stroke-miterlimit:3.8;stroke-dasharray:none;stroke-opacity:1"
       transform="matrix(0.13333333,0,0,-0.13333333,0,469.33333)" /><path
       id="path16"
       d="m 5.9653062,-0.00141094 h -1.40625 V -8.9545359 c -0.3457031,0.3222656 -0.7910156,0.6416015 -1.3359375,0.9609375 -0.5478515,0.3222656 -1.040039,0.5625 -1.4765625,0.7265625 v -1.359375 C 2.5258531,-8.9926219 3.2114,-9.4379344 3.7973375,-9.9623484 4.3891344,-10.492622 4.8080797,-11.005317 5.0512437,-11.497505 h 0.9140625 z m 0,0"
       style="fill:#000000;fill-opacity:1;fill-rule:nonzero;stroke:none"
       aria-label=" 1"
       transform="matrix(1.3333333,0,0,1.3333333,100.96813,429.5136)" /><path
       id="path17"
       d="m 1059.5,512 v 15.5 m 0,2840 V 3352 m 280,-2840 v 31.5 m 0,2824 V 3336"
       style="fill:none;stroke:#000000;stroke-width:5;stroke-linecap:butt;stroke-linejoin:miter;stroke-miterlimit:3.8;stroke-dasharray:none;stroke-opacity:1"
       transform="matrix(0.13333333,0,0,-0.13333333,0,469.33333)" /><path
       id="path18"
       d="m 8.0493906,-1.3490672 v 1.34765626 H 0.47907813 c -0.008789,-0.33398437 0.046875,-0.65917968 0.1640625,-0.97265625 C 0.8365,-1.4896922 1.1470469,-1.9965281 1.5689219,-2.4975047 c 0.4277344,-0.4980469 1.0429687,-1.078125 1.8398437,-1.734375 1.2480469,-1.0224609 2.0917969,-1.8310547 2.53125,-2.4257812 0.4365235,-0.600586 0.65625,-1.163086 0.65625,-1.6875 0,-0.5625 -0.1992187,-1.0341797 -0.5976562,-1.4179688 -0.3984375,-0.3808593 -0.9199219,-0.5742183 -1.5585938,-0.5742183 -0.6796875,0 -1.2246093,0.205078 -1.6289062,0.6093746 -0.4072266,0.4072265 -0.6152344,0.9697265 -0.6210938,1.6875 l -1.44140622,-0.140625 c 0.0996094,-1.078125 0.47167972,-1.8984376 1.11328122,-2.4609376 0.647461,-0.568359 1.5146485,-0.855469 2.6015625,-0.855469 1.1015625,0 1.9716797,0.304688 2.6132813,0.914063 0.6386719,0.6093748 0.9609375,1.3652342 0.9609375,2.2617186 0,0.4628906 -0.09375,0.9140625 -0.28125,1.359375 -0.1875,0.4394531 -0.5009766,0.9023437 -0.9375,1.3945312 -0.4306641,0.4863281 -1.1542969,1.1572266 -2.1679688,2.015625 -0.84375,0.703125 -1.3886718,1.1835938 -1.6289062,1.4414063 -0.234375,0.2519531 -0.4306641,0.5039062 -0.5859375,0.7617187 z m 0,0"
       style="fill:#000000;fill-opacity:1;fill-rule:nonzero;stroke:none"
       aria-label=" 2"
       transform="matrix(1.3333333,0,0,1.3333333,175.63467,429.5136)" /><path
       id="path19"
       d="m 1619.5,512 v 15.5 m 0,2840 V 3352 m 280,-2840 v 31.5 m 0,2824 V 3336"
       style="fill:none;stroke:#000000;stroke-width:5;stroke-linecap:butt;stroke-linejoin:miter;stroke-miterlimit:3.8;stroke-dasharray:none;stroke-opacity:1"
       transform="matrix(0.13333333,0,0,-0.13333333,0,469.33333)" /><path
       id="path20"
       d="m 0.66755469,-3.0248484 1.40625001,-0.1875 c 0.1640625,0.796875 0.4365234,1.3710937 0.8203125,1.7226562 0.3896484,0.3515625 0.8671875,0.52734376 1.4296875,0.52734376 0.65625,0 1.2099609,-0.22558596 1.6640625,-0.67968746 0.4599609,-0.459961 0.6914062,-1.03125 0.6914062,-1.7109375 0,-0.647461 -0.2109375,-1.1777344 -0.6328125,-1.59375 -0.421875,-0.421875 -0.9580078,-0.6328125 -1.6054687,-0.6328125 -0.2666016,0 -0.5976563,0.052734 -0.9960938,0.1523437 l 0.1523438,-1.2304687 c 0.09375,0.00879 0.1699219,0.011719 0.234375,0.011719 0.5917969,0 1.1279297,-0.1552734 1.6054687,-0.46875 0.4833985,-0.3105469 0.7265625,-0.7910156 0.7265625,-1.4414062 0,-0.515625 -0.1757812,-0.9404297 -0.5273437,-1.2773438 -0.3457031,-0.3339851 -0.7939453,-0.5039061 -1.3476563,-0.5039061 -0.5478515,0 -1.0048828,0.172851 -1.3710937,0.5156249 -0.3603516,0.3457031 -0.5947266,0.8613281 -0.703125,1.546875 L 0.80817969,-8.5326609 c 0.16992187,-0.9375 0.56250001,-1.6640621 1.17187501,-2.1796871 0.609375,-0.521485 1.3652344,-0.785157 2.2734375,-0.785157 0.6240234,0 1.1982422,0.137696 1.7226562,0.410157 0.5302735,0.266601 0.9316407,0.629882 1.2070313,1.0898433 0.28125,0.4628906 0.421875,0.9550781 0.421875,1.4765625 0,0.4921875 -0.1347656,0.9433594 -0.3984375,1.3476563 -0.2666016,0.4072265 -0.65625,0.7324218 -1.171875,0.9726562 0.6708984,0.1582031 1.1953125,0.4804688 1.5703125,0.9726563 0.375,0.4921875 0.5625,1.1074218 0.5625,1.8398437 0,1.0019531 -0.3632813,1.8486328 -1.0898438,2.54296876 -0.7265625,0.69726563 -1.649414,1.04296875 -2.765625,1.04296875 -1.0078125,0 -1.8457031,-0.29589843 -2.5078125,-0.890625 C 1.1392344,-1.2934031 0.76130469,-2.0697703 0.66755469,-3.0248484 Z m 0,0"
       style="fill:#000000;fill-opacity:1;fill-rule:nonzero;stroke:none"
       aria-label=" 3"
       transform="matrix(1.3333333,0,0,1.3333333,250.30133,429.5136)" /><path
       id="path21"
       d="m 2179.5,512 v 15.5 m 0,2840 V 3352 m 280,-2840 v 31.5 m 0,2824 V 3336"
       style="fill:none;stroke:#000000;stroke-width:5;stroke-linecap:butt;stroke-linejoin:miter;stroke-miterlimit:3.8;stroke-dasharray:none;stroke-opacity:1"
       transform="matrix(0.13333333,0,0,-0.13333333,0,469.33333)" /><path
       id="path22"
       d="M 5.1685313,-0.00141094 V -2.7435984 H 0.19978125 V -4.0326609 L 5.4263438,-11.45063 h 1.1484375 v 7.4179691 h 1.546875 v 1.2890625 h -1.546875 v 2.74218746 z m 0,-4.03124996 v -5.15625 l -3.5859375,5.15625 z m 0,0"
       style="fill:#000000;fill-opacity:1;fill-rule:nonzero;stroke:none"
       aria-label=" 4"
       transform="matrix(1.3333333,0,0,1.3333333,324.968,429.5136)" /><path
       id="path23"
       d="m 2739.5,512 v 15.5 m 0,2840 V 3352 m 280,-2840 v 31.5 m 0,2824 V 3336"
       style="fill:none;stroke:#000000;stroke-width:5;stroke-linecap:butt;stroke-linejoin:miter;stroke-miterlimit:3.8;stroke-dasharray:none;stroke-opacity:1"
       transform="matrix(0.13333333,0,0,-0.13333333,0,469.33333)" /><path
       id="path24"
       d="M 0.66657813,-3.0014109 2.1431406,-3.1303172 c 0.1083985,0.7207031 0.3632813,1.2626953 0.7617188,1.6289063 0.3984375,0.3603515 0.8789062,0.53906246 1.4414062,0.53906246 0.6708985,0 1.2421875,-0.25195316 1.7109375,-0.76171876 0.46875,-0.515625 0.703125,-1.1953125 0.703125,-2.0390625 0,-0.796875 -0.2285156,-1.4238281 -0.6796875,-1.8867187 -0.4453125,-0.46875 -1.03125,-0.703125 -1.7578125,-0.703125 -0.4541015,0 -0.8642578,0.1054687 -1.2304687,0.3164062 -0.3691406,0.2050781 -0.6533203,0.46875 -0.8554688,0.796875 L 0.91267188,-5.4154734 2.0259531,-11.298286 h 5.6953125 v 1.3476563 H 3.1509531 l -0.6210937,3.0703125 c 0.6855469,-0.4746094 1.4091797,-0.7148437 2.1679687,-0.7148437 0.9990235,0 1.8398438,0.3486328 2.5195313,1.0429687 0.6855469,0.6884766 1.03125,1.5791016 1.03125,2.671875 0,1.03125 -0.3017578,1.9277344 -0.9023438,2.6835938 -0.7353515,0.93164059 -1.734375,1.39453121 -3,1.39453121 -1.0488281,0 -1.8984375,-0.29296875 -2.5546875,-0.87890625 C 1.1353281,-1.2670359 0.76032813,-2.0404734 0.66657813,-3.0014109 Z m 0,0"
       style="fill:#000000;fill-opacity:1;fill-rule:nonzero;stroke:none"
       aria-label=" 5"
       transform="matrix(1.3333333,0,0,1.3333333,399.63467,429.5136)" /><path
       id="path25"
       d="m 3299.5,512 v 15.5 m 0,2840 V 3352 m 280,-2840 v 31.5 m 0,2824 V 3336"
       style="fill:none;stroke:#000000;stroke-width:5;stroke-linecap:butt;stroke-linejoin:miter;stroke-miterlimit:3.8;stroke-dasharray:none;stroke-opacity:1"
       transform="matrix(0.13333333,0,0,-0.13333333,0,469.33333)" /><path
       id="path26"
       d="M 7.9566172,-8.6498484 6.5620859,-8.5326609 C 6.4361094,-9.0863719 6.2603281,-9.4877391 6.0347422,-9.7396922 5.6509531,-10.13813 5.1822031,-10.337348 4.6284922,-10.337348 c -0.4541016,0 -0.8496094,0.125976 -1.1835938,0.3749996 -0.4453125,0.3222656 -0.796875,0.7910156 -1.0546875,1.40625 -0.2519531,0.618164 -0.3808593,1.5 -0.3867187,2.6484375 0.3339844,-0.515625 0.7441406,-0.8964844 1.2304687,-1.1484375 0.4921875,-0.2490235 1.0078125,-0.375 1.546875,-0.375 0.9375,0 1.734375,0.3486328 2.390625,1.0429687 0.65625,0.6884766 0.984375,1.5791016 0.984375,2.671875 0,0.7207031 -0.1582031,1.3886719 -0.46875,2.0039063 -0.3046875,0.618164 -0.7265625,1.08984371 -1.265625,1.41796871 -0.5390625,0.328125 -1.1542968,0.4921875 -1.8398437,0.4921875 -1.171875,0 -2.1298828,-0.42773437 -2.8710938,-1.28906251 -0.74414059,-0.8671875 -1.11328121,-2.2880859 -1.11328121,-4.265625 0,-2.2089844 0.41015621,-3.8203125 1.23046871,-4.8281253 0.7089844,-0.873047 1.6699219,-1.3125 2.8828125,-1.3125 0.8964844,0 1.6347657,0.254883 2.2148438,0.761719 0.5771484,0.500977 0.9199219,1.1953126 1.03125,2.0859376 z m -5.7421875,4.9335937 c 0,0.4863281 0.099609,0.9492188 0.3046875,1.3945313 0.2109375,0.4453125 0.4980469,0.7851562 0.8671875,1.0195312 0.375,0.2285156 0.7646484,0.33984376 1.171875,0.33984376 0.5917969,0 1.1015625,-0.23730466 1.5234375,-0.71484376 0.4277344,-0.4833984 0.6445312,-1.1367187 0.6445312,-1.9570312 0,-0.788086 -0.2109375,-1.4091797 -0.6328125,-1.8632813 -0.421875,-0.4599609 -0.9550781,-0.6914062 -1.59375,-0.6914062 -0.6328125,0 -1.171875,0.2314453 -1.6171875,0.6914062 -0.4453125,0.4541016 -0.6679687,1.0488281 -0.6679687,1.78125 z m 0,0"
       style="fill:#000000;fill-opacity:1;fill-rule:nonzero;stroke:none"
       aria-label=" 6"
       transform="matrix(1.3333333,0,0,1.3333333,474.30133,429.5136)" /><path
       id="path27"
       d="M 751.5,3367.5 V 512 h 2856 v 2855.5 z"
       style="fill:none;stroke:#000000;stroke-width:10;stroke-linecap:butt;stroke-linejoin:miter;stroke-miterlimit:3.8;stroke-dasharray:none;stroke-opacity:1"
       transform="matrix(0.13333333,0,0,-0.13333333,0,469.33333)" /><path
       id="path28"
       d="M 1.0651953,5.421875e-4 V -11.448677 h 1.40625 v 6.5273442 l 3.328125,-3.375 H 7.6159766 L 4.4401953,-5.2143016 7.9323828,5.421875e-4 H 6.1980078 L 3.4558203,-4.2416453 2.4714453,-3.2924266 V 5.421875e-4 Z M 9.1716406,4.7993703 V -6.6498484 H 10.683359 V 3.4517141 h 5.636719 V 4.7993703 Z M 24.514414,0.77983906 26.037852,1.1665578 c -0.322266,1.2421875 -0.896485,2.1914063 -1.722657,2.8476563 -0.820312,0.65625 -1.828125,0.984375 -3.023437,0.984375 -1.236328,0 -2.238281,-0.2490235 -3.011719,-0.75 C 17.506602,3.7417531 16.914805,3.0122609 16.510508,2.0571828 16.11207,1.1050344 15.912852,0.08257344 15.912852,-1.0131297 c 0,-1.1953125 0.225586,-2.2324219 0.679687,-3.1171875 0.459961,-0.890625 1.107422,-1.5644531 1.945313,-2.0273437 0.84375,-0.459961 1.769531,-0.6914063 2.777343,-0.6914063 1.148438,0 2.112305,0.2929688 2.894532,0.8789063 0.779296,0.5859375 1.324218,1.40625 1.628906,2.4609375 l -1.488281,0.3515625 c -0.266602,-0.834961 -0.653321,-1.4414063 -1.160157,-1.8164063 -0.500976,-0.3808594 -1.133789,-0.5742187 -1.898437,-0.5742187 -0.884766,0 -1.623047,0.2109375 -2.214844,0.6328125 -0.585937,0.421875 -1.001953,0.9902343 -1.242187,1.6992187 -0.243164,0.7119141 -0.363282,1.4414063 -0.363282,2.1914063 0,0.97851559 0.140625,1.82812496 0.421875,2.5546875 0.28711,0.7265625 0.729493,1.2714843 1.324219,1.6289062 0.600586,0.3603516 1.253906,0.5390625 1.957031,0.5390625 0.84375,0 1.558594,-0.2402344 2.144532,-0.7265625 0.591796,-0.4921875 0.990234,-1.2216797 1.195312,-2.19140624 z M 25.780039,5.421875e-4 V -1.6049266 h 1.605469 V 5.421875e-4 c 0,0.5859375025 -0.105469,1.0576172125 -0.316406,1.4179687125 -0.205079,0.366211 -0.533204,0.647461 -0.984375,0.84375 L 25.686289,1.6646047 c 0.295899,-0.1347656 0.515625,-0.3251953 0.65625,-0.5742188 0.140625,-0.25195309 0.216797,-0.61523434 0.234375,-1.0898437125 z m 8.545899,0 V -11.448677 h 1.40625 v 6.5273442 l 3.328125,-3.375 h 1.816406 l -3.175781,3.0820312 3.492187,5.2148437875 H 39.45875 L 36.716563,-4.2416453 35.732188,-3.2924266 V 5.421875e-4 Z M 42.74,4.7993703 V -6.6498484 h 1.523438 V 4.7993703 Z m 3.348633,0 V -6.6498484 h 1.523437 v 4.6992187 h 5.941407 v -4.6992187 h 1.523437 V 4.7993703 H 53.553477 V -0.60297344 H 47.61207 V 4.7993703 Z m 9.137695,0 V -6.6498484 h 4.300781 c 0.873047,0 1.573243,0.1171875 2.097657,0.3515625 0.530273,0.2285156 0.943359,0.5830078 1.242187,1.0664062 0.295899,0.4863281 0.445313,0.9902344 0.445313,1.5117188 0,0.4863281 -0.134766,0.946289 -0.398438,1.3828125 -0.266601,0.430664 -0.665039,0.7792968 -1.195312,1.0429687 0.685547,0.2050781 1.21875,0.55078126 1.59375,1.04296876 0.375,0.48632813 0.5625,1.06347657 0.5625,1.73437504 0,0.5332031 -0.114258,1.0283203 -0.339844,1.4882812 -0.228516,0.4628906 -0.509766,0.8173828 -0.84375,1.0664063 -0.336914,0.2519531 -0.755859,0.4423828 -1.253906,0.5742187 -0.500977,0.1259766 -1.113282,0.1875 -1.839844,0.1875 z m 1.511719,-6.6445312 h 2.484375 c 0.670898,0 1.151367,-0.041016 1.441406,-0.1289063 0.38086,-0.1171875 0.670899,-0.3076172 0.867188,-0.5742187 0.193359,-0.2636719 0.292968,-0.5976563 0.292968,-0.9960938 0,-0.375 -0.09082,-0.7060547 -0.269531,-0.9960937 -0.18164,-0.2871094 -0.442383,-0.4863282 -0.785156,-0.5976563 -0.336914,-0.1083984 -0.914063,-0.1640625 -1.734375,-0.1640625 h -2.296875 z m 0,5.296875 h 2.859375 c 0.483398,0 0.826172,-0.017578 1.03125,-0.058594 0.342773,-0.061523 0.632812,-0.1640625 0.867187,-0.3046875 0.234375,-0.1464844 0.424805,-0.3632812 0.574219,-0.6445312 0.155274,-0.28125 0.234375,-0.600586 0.234375,-0.9609375 0,-0.4277344 -0.111328,-0.79980472 -0.328125,-1.11328129 -0.219726,-0.31933593 -0.524414,-0.54199218 -0.914062,-0.66796875 -0.383789,-0.12304687 -0.94336,-0.1875 -1.675782,-0.1875 H 56.738047 Z M 75.224375,3.3638234 C 74.450938,2.3853078 73.794688,1.2427297 73.255625,-0.06977031 72.722422,-1.3822703 72.45875,-2.7416453 72.45875,-4.1478953 c 0,-1.2421875 0.199219,-2.4287109 0.597656,-3.5625 0.46875,-1.3125 1.189453,-2.6249997 2.167969,-3.9374997 h 1.007813 c -0.626954,1.086914 -1.04004,1.8603513 -1.242188,2.3203122 -0.322266,0.7207031 -0.571289,1.4707031 -0.75,2.25 -0.228516,0.9785156 -0.339844,1.9570312 -0.339844,2.9414062 0,2.5019532 0.776367,4.99804691 2.332032,7.5 z m 2.645508,-0.1875 V -8.2963328 h 1.277344 v 1.078125 c 0.304687,-0.421875 0.644531,-0.7382813 1.019531,-0.9492188 0.380859,-0.2109375 0.84668,-0.3164062 1.394531,-0.3164062 0.703125,0 1.324219,0.1845703 1.863281,0.5507812 0.544922,0.3603516 0.955078,0.8730469 1.230469,1.5351563 0.272461,0.6650391 0.410156,1.3945312 0.410156,2.1914062 0,0.84375 -0.152343,1.6054688 -0.457031,2.2851563 -0.298828,0.6796875 -0.738281,1.20410155 -1.324219,1.57031249 -0.580078,0.35742187 -1.189453,0.5390625 -1.828125,0.5390625 -0.46875,0 -0.890625,-0.09960938 -1.265625,-0.29296875 -0.36914,-0.20214844 -0.673828,-0.45117188 -0.914062,-0.75 V 3.1763234 Z m 1.277344,-7.2773437 c 0,1.0722656 0.213867,1.8603516 0.644531,2.3671875 0.427734,0.5097656 0.952148,0.76171874 1.570312,0.76171874 0.624024,0 1.160157,-0.26074214 1.605469,-0.78515624 0.445313,-0.5302734 0.667969,-1.3505859 0.667969,-2.4609375 0,-1.0546875 -0.219727,-1.8427734 -0.65625,-2.3671875 -0.430664,-0.5302734 -0.949219,-0.796875 -1.558594,-0.796875 -0.594726,0 -1.12207,0.28125 -1.582031,0.84375 -0.462891,0.5566406 -0.691406,1.3681641 -0.691406,2.4375 z m 7.054687,1.6289062 1.394531,-0.2226562 c 0.07617,0.5566406 0.292969,0.9814453 0.644532,1.2773437 0.357421,0.2988282 0.858398,0.44531254 1.5,0.44531254 0.647461,0 1.127929,-0.12890624 1.441406,-0.38671874 0.310547,-0.2636719 0.46875,-0.5742188 0.46875,-0.9257813 0,-0.3193359 -0.140625,-0.5683593 -0.421875,-0.75 -0.1875,-0.1230468 -0.665039,-0.2841796 -1.429688,-0.4804687 -1.03125,-0.2578125 -1.746093,-0.4804688 -2.144531,-0.6679688 -0.398437,-0.1933593 -0.703125,-0.4599609 -0.914062,-0.796875 -0.205079,-0.3339843 -0.304688,-0.7060546 -0.304688,-1.1132812 0,-0.3662109 0.08203,-0.7060547 0.246094,-1.0195313 0.169922,-0.3193359 0.404297,-0.5859375 0.703125,-0.796875 0.216797,-0.1552734 0.515625,-0.2871093 0.890625,-0.3984375 0.375,-0.1171875 0.779297,-0.1757812 1.21875,-0.1757812 0.647461,0 1.21875,0.09375 1.710937,0.28125 0.492188,0.1875 0.855469,0.4423828 1.089844,0.7617187 0.234375,0.3222657 0.392578,0.75 0.480469,1.2890625 l -1.371094,0.1875 c -0.06445,-0.4277343 -0.246094,-0.7617187 -0.550781,-0.9960937 -0.298828,-0.2402344 -0.720703,-0.3632813 -1.265625,-0.3632813 -0.641602,0 -1.101563,0.1054688 -1.382813,0.3164063 -0.27539,0.2109375 -0.410156,0.4628906 -0.410156,0.75 0,0.1816406 0.05859,0.3457031 0.175781,0.4921875 0.108399,0.1494141 0.28711,0.2753906 0.539063,0.375 0.140625,0.055664 0.553711,0.1757812 1.242187,0.3632812 0.990235,0.2666016 1.681641,0.4863282 2.074219,0.65625 0.398438,0.1640625 0.706055,0.4101563 0.925781,0.7382813 0.225586,0.3222656 0.339844,0.7207031 0.339844,1.1953125 0,0.46875 -0.137695,0.9111328 -0.410156,1.3242187 -0.275391,0.41601566 -0.667969,0.7353516 -1.183594,0.96093754 -0.515625,0.22558594 -1.098633,0.33984375 -1.746094,0.33984375 -1.078125,0 -1.904297,-0.22265625 -2.472656,-0.66796875 -0.5625,-0.45117188 -0.922851,-1.11621094 -1.078125,-1.99218754 z M 102.15699,-12.992622 h -7.558592 v -1.3125 h 7.558592 z m 4.99219,4.9921876 h -1.40625 v -8.9531246 c -0.3457,0.322265 -0.79102,0.641601 -1.33594,0.960937 -0.54785,0.322266 -1.04004,0.5625 -1.47656,0.726563 v -1.359375 c 0.7793,-0.366211 1.46484,-0.811524 2.05078,-1.335938 0.5918,-0.530273 1.01074,-1.042969 1.25391,-1.535156 h 0.91406 z m 3.13184,11.3642578 h -1.00782 c 1.55274,-2.50195309 2.33203,-4.9980468 2.33203,-7.5 0,-0.984375 -0.11425,-1.9570312 -0.33984,-2.9179687 -0.17285,-0.7792969 -0.41894,-1.5292969 -0.73828,-2.25 -0.20508,-0.46875 -0.62109,-1.2480467 -1.25391,-2.3437497 h 1.00782 c 0.97558,1.3125 1.69921,2.6249997 2.16796,3.9374997 0.39844,1.1337891 0.59766,2.3203125 0.59766,3.5625 0,1.40625 -0.26953,2.765625 -0.80859,4.07812499 -0.53907,1.31250001 -1.19239,2.45507811 -1.95703,3.43359371 z m 0,0"
       style="fill:#000000;fill-opacity:1;fill-rule:nonzero;stroke:none"
       aria-label="k&#10;LC&#10;, k&#10;IHB&#10;  (ps&#10;−1&#10;)"
       transform="matrix(0,-1.3333333,1.3333333,0,35.846933,286.48667)" /><path
       id="path29"
       d="M 6.432875,-0.00137094 V -1.0443397 c -0.5244141,0.82031251 -1.2978516,1.23046876 -2.3203125,1.23046876 -0.65625,0 -1.2626953,-0.18164062 -1.8164062,-0.5390625 -0.5566407,-0.36621093 -0.984375,-0.87890626 -1.2890625,-1.53515626 -0.30468755,-0.65625 -0.4570313,-1.40625 -0.4570313,-2.25 0,-0.8261719 0.13476563,-1.5761719 0.41015625,-2.25 0.27246095,-0.6796875 0.68554685,-1.1982422 1.24218755,-1.5585937 0.5537109,-0.3574219 1.171875,-0.5390625 1.8515625,-0.5390625 0.4980468,0 0.9433593,0.1054687 1.3359375,0.3164062 0.3896484,0.2109375 0.7060546,0.4863281 0.9492187,0.8203125 V -11.45059 h 1.40625 V -0.00137094 Z M 1.9914688,-4.1380897 c 0,1.0634766 0.2226562,1.8574219 0.6679687,2.3789063 0.4511719,0.524414 0.984375,0.78515621 1.59375,0.78515621 0.609375,0 1.1279297,-0.24902341 1.5585938,-0.75000001 0.4277343,-0.4980469 0.6445312,-1.265625 0.6445312,-2.296875 0,-1.1396484 -0.2197266,-1.9746094 -0.65625,-2.5078125 -0.4394531,-0.5302734 -0.9785156,-0.796875 -1.6171875,-0.796875 -0.6269531,0 -1.1484375,0.2578125 -1.5703125,0.7734375 -0.4160156,0.5097656 -0.6210937,1.3125 -0.6210937,2.4140625 z m 15.0908202,7.5 C 16.308852,2.3833947 15.652602,1.2408166 15.113539,-0.07168344 14.580336,-1.3841834 14.316664,-2.7435584 14.316664,-4.1498084 c 0,-1.2421875 0.199219,-2.428711 0.597656,-3.5625 0.46875,-1.3125 1.189453,-2.6249996 2.167969,-3.9374996 h 1.007813 c -0.626954,1.086914 -1.040039,1.8603511 -1.242188,2.3203121 -0.322266,0.7207031 -0.571289,1.4707031 -0.75,2.25 -0.228516,0.9785156 -0.339844,1.9570312 -0.339844,2.9414062 0,2.5019531 0.776368,4.99804689 2.332032,7.5 z M 18.661391,-0.00137094 23.055922,-11.45059 h 1.640625 l 4.675781,11.44921906 H 27.649672 L 26.313734,-3.4701209 h -4.78125 l -1.265625,3.46874996 z m 3.304687,-4.69921876 h 3.878906 l -1.195312,-3.1757812 c -0.360352,-0.9609375 -0.629883,-1.7490235 -0.808594,-2.3671871 -0.149414,0.7353511 -0.357422,1.4619136 -0.621094,2.1796871 z m 0.480469,-7.8046873 c 0,-0.375 0.134766,-0.697266 0.410156,-0.972656 0.28125,-0.28125 0.612305,-0.421875 0.996094,-0.421875 0.380859,0 0.708984,0.140625 0.984375,0.421875 0.28125,0.27539 0.421875,0.609375 0.421875,1.007812 0,0.398438 -0.140625,0.738281 -0.421875,1.019531 -0.275391,0.275391 -0.597656,0.410157 -0.972656,0.410157 -0.392578,0 -0.726563,-0.134766 -1.007813,-0.410157 -0.27539,-0.28125 -0.410156,-0.632812 -0.410156,-1.054687 z m 0.597656,0.01172 c 0,0.243164 0.08203,0.451171 0.246094,0.621093 0.164062,0.164063 0.354492,0.246094 0.574219,0.246094 0.225586,0 0.421875,-0.08203 0.585937,-0.246094 0.164063,-0.169922 0.246094,-0.375 0.246094,-0.609375 0,-0.234375 -0.08203,-0.433593 -0.246094,-0.597656 -0.158203,-0.164062 -0.351562,-0.246094 -0.585937,-0.246094 -0.219727,0 -0.410157,0.08203 -0.574219,0.246094 -0.164063,0.164063 -0.246094,0.360352 -0.246094,0.585938 z M 31.3235,3.3619103 h -1.007812 c 1.552734,-2.50195311 2.332031,-4.9980469 2.332031,-7.5 0,-0.984375 -0.114258,-1.9570312 -0.339844,-2.9179687 -0.172852,-0.7792969 -0.418945,-1.5292969 -0.738281,-2.25 -0.205078,-0.46875 -0.621094,-1.2480466 -1.253906,-2.3437496 H 31.3235 c 0.975586,1.3125 1.699219,2.6249996 2.167969,3.9374996 0.398437,1.133789 0.597656,2.3203125 0.597656,3.5625 0,1.40625 -0.269531,2.765625 -0.808594,4.07812496 C 32.741469,1.2408166 32.088148,2.3833947 31.3235,3.3619103 Z m -54.864258,-320.2353503 1.394531,-0.22266 c 0.07617,0.55664 0.292969,0.98145 0.644532,1.27735 0.357422,0.29882 0.858398,0.44531 1.5,0.44531 0.647461,0 1.127929,-0.12891 1.441406,-0.38672 0.310547,-0.26367 0.46875,-0.57422 0.46875,-0.92578 0,-0.31934 -0.140625,-0.56836 -0.421875,-0.75 -0.1875,-0.12305 -0.665039,-0.28418 -1.429688,-0.48047 -1.03125,-0.25781 -1.746093,-0.48047 -2.144531,-0.66797 -0.398437,-0.19336 -0.703125,-0.45996 -0.914062,-0.79687 -0.205078,-0.33399 -0.304688,-0.70606 -0.304688,-1.11328 0,-0.36622 0.08203,-0.70606 0.246094,-1.01954 0.169922,-0.31933 0.404297,-0.58593 0.703125,-0.79687 0.216797,-0.15527 0.515625,-0.28711 0.890625,-0.39844 0.375,-0.11719 0.779297,-0.17578 1.21875,-0.17578 0.647461,0 1.21875,0.0937 1.710937,0.28125 0.492188,0.1875 0.855469,0.44238 1.089844,0.76172 0.234375,0.32226 0.392578,0.75 0.480469,1.28906 l -1.371094,0.1875 c -0.06445,-0.42773 -0.246094,-0.76172 -0.550781,-0.99609 -0.298828,-0.24024 -0.720703,-0.36328 -1.265625,-0.36328 -0.641602,0 -1.101563,0.10547 -1.382813,0.3164 -0.27539,0.21094 -0.410156,0.46289 -0.410156,0.75 0,0.18164 0.05859,0.34571 0.175781,0.49219 0.108399,0.14941 0.28711,0.27539 0.539063,0.375 0.140625,0.0557 0.553711,0.17578 1.242187,0.36328 0.990235,0.2666 1.681641,0.48633 2.074219,0.65625 0.398438,0.16406 0.706055,0.41016 0.925781,0.73828 0.225586,0.32227 0.339844,0.72071 0.339844,1.19532 0,0.46875 -0.137695,0.91113 -0.410156,1.32421 -0.275391,0.41602 -0.667969,0.73536 -1.183594,0.96094 -0.515625,0.22559 -1.098633,0.33985 -1.746094,0.33985 -1.078125,0 -1.904296,-0.22266 -2.472656,-0.66797 -0.5625,-0.45118 -0.922851,-1.11621 -1.078125,-1.99219 z m 13.9746096,-0.5625 1.3828125,0.17578 c -0.1494141,0.95508 -0.5361328,1.69922 -1.1601563,2.23828 -0.6269531,0.53906 -1.3916018,0.8086 -2.2968748,0.8086 -1.133789,0 -2.047852,-0.36915 -2.742188,-1.11329 -0.688476,-0.74121 -1.03125,-1.80468 -1.03125,-3.1875 0,-0.89648 0.146485,-1.68164 0.445313,-2.35546 0.295898,-0.6709 0.75,-1.17481 1.359375,-1.51172 0.609375,-0.33399 1.268555,-0.50391 1.980469,-0.50391 0.896484,0 1.6318355,0.23145 2.2031246,0.69141 0.5771484,0.4541 0.9492187,1.09863 1.1132812,1.93359 l -1.3710937,0.21094 c -0.1347657,-0.55371 -0.3632811,-0.97266 -0.6914061,-1.25391 -0.328125,-0.28125 -0.726563,-0.42187 -1.195313,-0.42187 -0.711914,0 -1.289062,0.25488 -1.734375,0.76172 -0.439453,0.50976 -0.65625,1.30957 -0.65625,2.40234 0,1.11914 0.210938,1.93066 0.632813,2.4375 0.427734,0.50098 0.987305,0.75 1.675781,0.75 0.553711,0 1.013672,-0.16699 1.382813,-0.50391 0.3662105,-0.33398 0.6005855,-0.85547 0.7031246,-1.55859 z m 8.2705078,0.36328 1.44140623,0.17578 c -0.22851563,0.85254 -0.65039063,1.51172 -1.26562503,1.98047 -0.618164,0.46875 -1.4121093,0.70313 -2.3789062,0.70313 -1.2128906,0 -2.1738281,-0.36915 -2.8828125,-1.11329 -0.7119141,-0.75 -1.0664063,-1.79882 -1.0664063,-3.15234 0,-1.39746 0.3574219,-2.47852 1.078125,-3.24609 0.7177735,-0.77344 1.6523438,-1.16016 2.8007813,-1.16016 1.1074219,0 2.0097656,0.38086 2.70703123,1.13672 0.703125,0.75 1.0546875,1.81348 1.0546875,3.1875 0,0.0791 0,0.20508 0,0.375 H -5.9948594 c 0.052734,0.9082 0.3105469,1.60254 0.7734375,2.08594 0.459961,0.48632 1.0371094,0.72656 1.734375,0.72656 0.515625,0 0.9521485,-0.13184 1.3125,-0.39844 0.366211,-0.27246 0.6591797,-0.70605 0.8789063,-1.30078 z m -4.6171875,-2.27344 h 4.6289062 c -0.064453,-0.69433 -0.2402343,-1.21875 -0.5273437,-1.57031 -0.4541016,-0.53906 -1.0371094,-0.80859 -1.7460938,-0.80859 -0.6503906,0 -1.1923828,0.21679 -1.6289062,0.64453 -0.4394531,0.43066 -0.6796875,1.00781 -0.7265625,1.73437 z m 7.828125,4.94532 v -8.29688 h 1.265625 v 1.18359 c 0.609375,-0.91406 1.4882812,-1.37109 2.6367187,-1.37109 0.4980469,0 0.9609375,0.0908 1.3828125,0.26953 0.421875,0.18164 0.7324219,0.41895 0.9375,0.71485 0.2109375,0.29003 0.3574219,0.63281 0.4453125,1.03125 0.046875,0.25781 0.070312,0.71484 0.070312,1.37109 v 5.09766 h -1.40625 v -5.05079 c 0,-0.56836 -0.055664,-0.99609 -0.1640625,-1.27734 -0.1113281,-0.28711 -0.3046875,-0.51562 -0.5859375,-0.67969 -0.2753906,-0.16992 -0.5976562,-0.25781 -0.9726562,-0.25781 -0.6035156,0 -1.1220703,0.19336 -1.5585938,0.57422 -0.430664,0.375 -0.6445312,1.0957 -0.6445312,2.15625 v 4.53516 z m 14.3115231,-1.01954 c -0.524414,0.43946 -1.02832,0.75 -1.511718,0.9375 -0.477539,0.17871 -0.993164,0.26954 -1.546875,0.26954 -0.908204,0 -1.605469,-0.22266 -2.097657,-0.66797 -0.492187,-0.44532 -0.738281,-1.01368 -0.738281,-1.71094 0,-0.4043 0.09375,-0.77637 0.28125,-1.11328 0.1875,-0.33399 0.427734,-0.60352 0.726563,-0.8086 0.295898,-0.20214 0.632812,-0.35449 1.007812,-0.45703 0.28125,-0.0703 0.697266,-0.14062 1.253906,-0.21093 1.13086,-0.13184 1.96875,-0.29297 2.507813,-0.48047 0.0059,-0.19336 0.01172,-0.31934 0.01172,-0.375 0,-0.56836 -0.134766,-0.97266 -0.398438,-1.20703 -0.360351,-0.31934 -0.896484,-0.48047 -1.605469,-0.48047 -0.665039,0 -1.154297,0.11718 -1.464843,0.35156 -0.313477,0.23437 -0.547852,0.64453 -0.703125,1.23047 l -1.371094,-0.1875 c 0.123047,-0.58594 0.328125,-1.05762 0.609375,-1.41797 0.287109,-0.36621 0.703125,-0.64746 1.242187,-0.84375 0.544922,-0.19336 1.174805,-0.29297 1.886719,-0.29297 0.708984,0 1.283203,0.0879 1.722656,0.25781 0.445313,0.16407 0.773438,0.37207 0.984375,0.6211 0.210938,0.25195 0.354493,0.57129 0.433594,0.96093 0.04687,0.23438 0.07031,0.66504 0.07031,1.28907 v 1.875 c 0,1.3125 0.0293,2.1416 0.09375,2.48437 0.06152,0.3457 0.178711,0.67676 0.351562,0.9961 H 16.50807 c -0.149414,-0.28711 -0.243164,-0.62696 -0.28125,-1.01954 z m -0.117187,-3.14062 c -0.509766,0.20508 -1.274414,0.38086 -2.296875,0.52734 -0.580078,0.0879 -0.990235,0.18164 -1.230469,0.28125 -0.234375,0.10254 -0.418945,0.25489 -0.550781,0.45703 -0.134766,0.20508 -0.199219,0.42774 -0.199219,0.66797 0,0.375 0.140625,0.68848 0.421875,0.9375 0.287109,0.25196 0.706055,0.375 1.253906,0.375 0.539063,0 1.019532,-0.11718 1.441407,-0.35156 0.421875,-0.24023 0.732421,-0.56543 0.9375,-0.97266 0.146484,-0.31933 0.222656,-0.78808 0.222656,-1.40625 z m 3.585937,4.16016 v -8.29688 h 1.265625 v 1.25391 c 0.319336,-0.58594 0.615235,-0.97266 0.890625,-1.16016 0.272461,-0.1875 0.574219,-0.28125 0.902344,-0.28125 0.474609,0 0.955078,0.15234 1.441406,0.45703 l -0.480468,1.30078 c -0.345704,-0.20215 -0.688477,-0.30468 -1.03125,-0.30468 -0.304688,0 -0.583008,0.0937 -0.832032,0.28125 -0.243164,0.18164 -0.416015,0.43359 -0.515625,0.76171 -0.158203,0.50098 -0.234375,1.04883 -0.234375,1.64063 v 4.34766 z m 5.352539,-9.83204 V -325.85 h 1.40625 v 1.61718 z m 0,9.83204 v -8.29688 h 1.40625 v 8.29688 z m 3.011719,-4.14844 c 0,-1.53809 0.427735,-2.67481 1.289063,-3.41016 0.708984,-0.61523 1.576172,-0.92578 2.601562,-0.92578 1.139649,0 2.06836,0.375 2.789063,1.125 0.726562,0.74414 1.089843,1.77539 1.089843,3.09375 0,1.07227 -0.161132,1.91016 -0.480468,2.51953 -0.313477,0.60938 -0.779297,1.08692 -1.394532,1.42969 -0.609375,0.33398 -1.277343,0.50391 -2.003906,0.50391 -1.157226,0 -2.094726,-0.36915 -2.8125,-1.11329 -0.720703,-0.75 -1.078125,-1.82226 -1.078125,-3.22265 z m 1.453125,0 c 0,1.06347 0.228516,1.86035 0.691406,2.39062 0.459961,0.52442 1.042969,0.78516 1.746094,0.78516 0.703125,0 1.283203,-0.26367 1.746094,-0.79688 0.459961,-0.53027 0.691406,-1.33886 0.691406,-2.42578 0,-1.02246 -0.234375,-1.79883 -0.703125,-2.33203 -0.46289,-0.53027 -1.040039,-0.79687 -1.734375,-0.79687 -0.703125,0 -1.286133,0.2666 -1.746094,0.79687 -0.46289,0.52442 -0.691406,1.31836 -0.691406,2.37891 z m 17.329102,4.14844 h -1.40625 v -8.95313 c -0.345703,0.32227 -0.791016,0.6416 -1.335938,0.96094 -0.547851,0.32226 -1.040039,0.5625 -1.476562,0.72656 v -1.35937 c 0.779297,-0.36622 1.464843,-0.81153 2.050781,-1.33594 0.591797,-0.53028 1.010742,-1.04297 1.253906,-1.53516 h 0.914063 z m 15.565429,3.36328 c -0.773437,-0.97852 -1.429687,-2.1211 -1.96875,-3.4336 -0.533203,-1.3125 -0.796875,-2.67187 -0.796875,-4.07812 0,-1.24219 0.199219,-2.42871 0.597657,-3.5625 0.46875,-1.3125 1.189453,-2.625 2.167968,-3.9375 h 1.007813 c -0.626953,1.08691 -1.040039,1.86035 -1.242188,2.32031 -0.322265,0.7207 -0.571289,1.4707 -0.75,2.25 -0.228515,0.97852 -0.339843,1.95703 -0.339843,2.94141 0,2.50195 0.776367,4.99804 2.332031,7.5 z m 2.762696,-3.36328 V -325.85 h 1.511718 v 10.10156 h 5.636719 v 1.34766 z m 17.121093,-4.01954 1.523438,0.38672 c -0.322266,1.24219 -0.896484,2.19141 -1.722656,2.84766 -0.820313,0.65625 -1.828125,0.98437 -3.023438,0.98437 -1.236328,0 -2.238281,-0.24902 -3.011719,-0.75 -0.773437,-0.50683 -1.365234,-1.23632 -1.769531,-2.1914 -0.398437,-0.95215 -0.597656,-1.97461 -0.597656,-3.07031 0,-1.19532 0.225586,-2.23243 0.679687,-3.11719 0.459961,-0.89063 1.107422,-1.56446 1.945313,-2.02735 0.84375,-0.45996 1.769531,-0.6914 2.777344,-0.6914 1.148437,0 2.112304,0.29297 2.894531,0.8789 0.779297,0.58594 1.324219,1.40625 1.628906,2.46094 l -1.488281,0.35156 c -0.266602,-0.83496 -0.65332,-1.4414 -1.160156,-1.8164 -0.500977,-0.38086 -1.133789,-0.57422 -1.898438,-0.57422 -0.884765,0 -1.623047,0.21094 -2.214844,0.63281 -0.585937,0.42188 -1.001953,0.99024 -1.242187,1.69922 -0.243164,0.71191 -0.363281,1.44141 -0.363281,2.19141 0,0.97851 0.140625,1.82812 0.421875,2.55468 0.287109,0.72657 0.729492,1.27149 1.324218,1.62891 0.600586,0.36035 1.253907,0.53906 1.957032,0.53906 0.84375,0 1.558593,-0.24023 2.144531,-0.72656 0.591797,-0.49219 0.990234,-1.22168 1.195312,-2.19141 z m 4.13379,7.38282 H 85.41725 c 1.552734,-2.50196 2.332031,-4.99805 2.332031,-7.5 0,-0.98438 -0.114258,-1.95703 -0.339843,-2.91797 -0.172852,-0.7793 -0.418946,-1.5293 -0.738282,-2.25 -0.205078,-0.46875 -0.621093,-1.24805 -1.253906,-2.34375 h 1.007813 c 0.975585,1.3125 1.699218,2.625 2.167968,3.9375 0.398438,1.13379 0.597657,2.32031 0.597657,3.5625 0,1.40625 -0.269532,2.76562 -0.808594,4.07812 -0.539063,1.3125 -1.192383,2.45508 -1.957031,3.4336 z m 0,0"
       style="fill:#000000;fill-opacity:1;fill-rule:nonzero;stroke:none"
       aria-label="d (Å)&#10;scenario 1  (LC)"
       transform="matrix(1.3333333,0,0,1.3333333,267.48533,461.51355)" /><path
       id="path30"
       d="m 3000,3256 h 415.5 m -2636,-738.5 560,-1150 560,-242.5 560,-40 560,21 560,11.5"
       style="fill:none;stroke:#3387bd;stroke-width:10;stroke-linecap:butt;stroke-linejoin:miter;stroke-miterlimit:3.8;stroke-dasharray:10, 25, 50, 50;stroke-dashoffset:0;stroke-opacity:1"
       transform="matrix(0.13333333,0,0,-0.13333333,0,469.33333)" /><path
       id="path31"
       d="M 0.49185156,-2.4713281 1.8863828,-2.6939844 c 0.076172,0.5566406 0.2929688,0.9814453 0.6445313,1.2773438 0.3574218,0.2988281 0.8583984,0.44531247 1.5,0.44531247 0.6474609,0 1.1279296,-0.12890627 1.4414062,-0.38671877 0.3105469,-0.2636719 0.46875,-0.5742187 0.46875,-0.9257812 0,-0.319336 -0.140625,-0.5683594 -0.421875,-0.75 C 5.3316953,-3.156875 4.8541562,-3.3180078 4.0895078,-3.5142969 3.0582578,-3.7721094 2.3434141,-3.9947656 1.9449766,-4.1822656 1.5465391,-4.375625 1.2418516,-4.6422266 1.0309141,-4.9791406 0.82583594,-5.313125 0.72622656,-5.6851953 0.72622656,-6.0924219 c 0,-0.3662109 0.0820313,-0.7060547 0.24609375,-1.0195312 0.16992189,-0.319336 0.40429689,-0.5859375 0.70312499,-0.796875 0.2167969,-0.1552735 0.515625,-0.2871094 0.890625,-0.3984375 0.375,-0.1171875 0.7792969,-0.1757813 1.21875,-0.1757813 0.6474609,0 1.21875,0.09375 1.7109375,0.28125 0.4921875,0.1875 0.8554688,0.4423828 1.0898438,0.7617188 0.234375,0.3222656 0.3925781,0.75 0.4804687,1.2890625 l -1.3710937,0.1875 C 5.6305234,-6.39125 5.4488828,-6.7252344 5.1441953,-6.9596094 4.8453672,-7.1998438 4.4234922,-7.3228906 3.8785703,-7.3228906 c -0.6416016,0 -1.1015625,0.1054687 -1.3828125,0.3164062 -0.2753906,0.2109375 -0.4101562,0.4628906 -0.4101562,0.75 0,0.1816406 0.058594,0.3457031 0.1757812,0.4921875 0.1083984,0.1494141 0.2871094,0.2753906 0.5390625,0.375 0.140625,0.055664 0.5537109,0.1757813 1.2421875,0.3632813 0.9902344,0.2666015 1.6816406,0.4863281 2.0742188,0.65625 0.3984375,0.1640625 0.7060546,0.4101562 0.9257812,0.7382812 0.2255859,0.3222656 0.3398438,0.7207031 0.3398438,1.1953125 0,0.46875 -0.1376954,0.9111328 -0.4101563,1.3242188 -0.2753906,0.4160156 -0.6679687,0.73535154 -1.1835937,0.96093747 -0.515625,0.22558594 -1.0986329,0.33984375 -1.7460938,0.33984375 -1.078125,0 -1.9042969,-0.22265625 -2.4726562,-0.66796875 C 1.0074766,-0.9303125 0.647125,-1.5953516 0.49185156,-2.4713281 Z m 13.97753944,-0.5625 1.382812,0.1757812 c -0.149414,0.9550781 -0.536133,1.6992188 -1.160156,2.23828127 -0.626953,0.5390625 -1.391602,0.80859375 -2.296875,0.80859375 -1.133789,0 -2.047852,-0.36914062 -2.7421876,-1.11328125 -0.6884766,-0.74121097 -1.03125,-1.80468747 -1.03125,-3.18749997 0,-0.8964844 0.1464843,-1.6816407 0.4453125,-2.3554688 0.2958984,-0.6708984 0.75,-1.1748047 1.3593751,-1.5117187 0.609375,-0.3339844 1.268555,-0.5039063 1.980469,-0.5039063 0.896484,0 1.631836,0.2314453 2.203125,0.6914063 0.577148,0.4541015 0.949218,1.0986328 1.113281,1.9335937 l -1.371094,0.2109375 c -0.134766,-0.5537109 -0.363281,-0.9726562 -0.691406,-1.2539062 -0.328125,-0.28125 -0.726563,-0.421875 -1.195313,-0.421875 -0.711914,0 -1.289062,0.2548828 -1.734375,0.7617187 -0.439453,0.5097656 -0.65625,1.3095703 -0.65625,2.4023438 0,1.1191406 0.210938,1.930664 0.632813,2.4375 0.427734,0.5009765 0.987305,0.74999997 1.675781,0.74999997 0.553711,0 1.013672,-0.16699217 1.382813,-0.50390627 0.366211,-0.3339844 0.600586,-0.8554687 0.703125,-1.5585937 z m 8.267578,0.3632812 1.441406,0.1757813 c -0.228516,0.852539 -0.650391,1.51171872 -1.265625,1.98046872 -0.618164,0.46875 -1.412109,0.703125 -2.378906,0.703125 -1.212891,0 -2.173828,-0.36914062 -2.882813,-1.11328125 -0.711914,-0.74999997 -1.066406,-1.79882817 -1.066406,-3.15234377 0,-1.3974609 0.357422,-2.4785156 1.078125,-3.2460937 0.717773,-0.7734375 1.652344,-1.1601563 2.800781,-1.1601563 1.107422,0 2.009766,0.3808594 2.707031,1.1367188 0.703125,0.75 1.054688,1.8134765 1.054688,3.1875 0,0.079102 0,0.2050781 0,0.375 h -6.1875 c 0.05273,0.9082031 0.310547,1.602539 0.773437,2.0859375 0.459961,0.4863281 1.03711,0.72656247 1.734375,0.72656247 0.515625,0 0.952149,-0.13183597 1.3125,-0.39843747 0.366211,-0.272461 0.65918,-0.7060547 0.878907,-1.3007813 z m -4.617188,-2.2734375 h 4.628906 c -0.06445,-0.6943359 -0.240234,-1.21875 -0.527343,-1.5703125 -0.454102,-0.5390625 -1.03711,-0.8085937 -1.746094,-0.8085937 -0.650391,0 -1.192383,0.2167968 -1.628906,0.6445312 -0.439453,0.4306641 -0.679688,1.0078125 -0.726563,1.734375 z m 7.831055,4.94531252 V -8.2955469 h 1.265625 v 1.1835938 c 0.609375,-0.9140625 1.488281,-1.3710938 2.636719,-1.3710938 0.498047,0 0.960937,0.09082 1.382812,0.2695313 0.421875,0.1816406 0.732422,0.4189453 0.9375,0.7148437 0.210938,0.2900391 0.357422,0.6328125 0.445313,1.03125 0.04687,0.2578125 0.07031,0.7148438 0.07031,1.3710938 v 5.09765622 h -1.40625 V -5.0494531 c 0,-0.5683594 -0.05566,-0.9960938 -0.164062,-1.2773438 -0.111328,-0.2871094 -0.304688,-0.515625 -0.585938,-0.6796875 -0.27539,-0.1699219 -0.597656,-0.2578125 -0.972656,-0.2578125 -0.603516,0 -1.12207,0.1933594 -1.558594,0.5742188 -0.430664,0.375 -0.644531,1.0957031 -0.644531,2.15625 V 0.00132812 Z M 40.25943,-1.0182031 c -0.524414,0.4394531 -1.028321,0.74999997 -1.511719,0.93749997 -0.477539,0.17871094 -0.993164,0.26953125 -1.546875,0.26953125 -0.908203,0 -1.605469,-0.22265625 -2.097656,-0.66796875 -0.492188,-0.4453125 -0.738282,-1.01367187 -0.738282,-1.71093747 0,-0.4042969 0.09375,-0.7763672 0.28125,-1.1132813 0.1875,-0.3339844 0.427735,-0.6035156 0.726563,-0.8085937 0.295898,-0.2021485 0.632812,-0.3544922 1.007812,-0.4570313 0.28125,-0.070312 0.697266,-0.140625 1.253907,-0.2109375 1.130859,-0.1318359 1.96875,-0.2929687 2.507812,-0.4804687 0.0059,-0.1933594 0.01172,-0.319336 0.01172,-0.375 0,-0.5683594 -0.134766,-0.9726563 -0.398438,-1.2070313 -0.360351,-0.3193359 -0.896484,-0.4804687 -1.605468,-0.4804687 -0.665039,0 -1.154297,0.1171875 -1.464844,0.3515625 -0.313477,0.234375 -0.547852,0.6445312 -0.703125,1.2304687 l -1.371094,-0.1875 c 0.123047,-0.5859375 0.328125,-1.0576172 0.609375,-1.4179687 0.28711,-0.366211 0.703125,-0.647461 1.242188,-0.84375 0.544922,-0.1933594 1.174804,-0.2929688 1.886718,-0.2929688 0.708985,0 1.283204,0.087891 1.722657,0.2578125 0.445312,0.1640625 0.773437,0.3720703 0.984375,0.6210938 0.210937,0.2519531 0.354492,0.571289 0.433593,0.9609375 0.04687,0.234375 0.07031,0.665039 0.07031,1.2890625 v 1.875 c 0,1.3125 0.0293,2.1416015 0.09375,2.48437497 0.06152,0.34570313 0.178711,0.67675782 0.351562,0.99609375 H 40.54068 C 40.391266,-0.28578125 40.297516,-0.625625 40.25943,-1.0182031 Z m -0.117188,-3.140625 c -0.509765,0.2050781 -1.274414,0.3808593 -2.296875,0.5273437 -0.580078,0.087891 -0.990234,0.1816406 -1.230469,0.28125 -0.234375,0.1025391 -0.418945,0.2548828 -0.550781,0.4570313 -0.134765,0.2050781 -0.199219,0.4277343 -0.199219,0.6679687 0,0.375 0.140625,0.6884766 0.421875,0.9375 0.28711,0.2519531 0.706055,0.37500002 1.253907,0.37500002 0.539062,0 1.019531,-0.11718752 1.441406,-0.35156252 0.421875,-0.2402344 0.732422,-0.5654297 0.9375,-0.9726562 0.146484,-0.319336 0.222656,-0.788086 0.222656,-1.40625 z m 3.588867,4.16015622 V -8.2955469 h 1.265625 v 1.2539063 c 0.319336,-0.5859375 0.615235,-0.9726563 0.890625,-1.1601563 0.272461,-0.1875 0.574219,-0.28125 0.902344,-0.28125 0.474609,0 0.955078,0.1523438 1.441406,0.4570313 l -0.480468,1.3007812 c -0.345704,-0.2021484 -0.688477,-0.3046875 -1.03125,-0.3046875 -0.304688,0 -0.583008,0.09375 -0.832032,0.28125 -0.243164,0.1816406 -0.416015,0.4335938 -0.515625,0.7617188 -0.158203,0.5009765 -0.234375,1.0488281 -0.234375,1.640625 v 4.34765622 z m 5.352539,-9.83203122 v -1.6171879 h 1.40625 v 1.6171879 z m 0,9.83203122 V -8.2955469 h 1.40625 v 8.29687502 z m 3.011719,-4.14843752 c 0,-1.5380859 0.427735,-2.6748047 1.289063,-3.4101562 0.708984,-0.6152344 1.576172,-0.9257813 2.601562,-0.9257813 1.139649,0 2.06836,0.375 2.789063,1.125 0.726562,0.7441406 1.089843,1.7753906 1.089843,3.09375 0,1.0722656 -0.161132,1.9101563 -0.480468,2.5195313 -0.313477,0.609375 -0.779297,1.08691404 -1.394532,1.42968747 -0.609375,0.33398438 -1.277343,0.50390625 -2.003906,0.50390625 -1.157226,0 -2.094726,-0.36914062 -2.8125,-1.11328125 C 52.452789,-1.6744531 52.095367,-2.7467188 52.095367,-4.1471094 Z m 1.453125,0 c 0,1.0634766 0.228516,1.8603516 0.691406,2.390625 0.459961,0.5244141 1.042969,0.78515627 1.746094,0.78515627 0.703125,0 1.283203,-0.26367187 1.746094,-0.79687497 0.459961,-0.5302735 0.691406,-1.3388672 0.691406,-2.4257813 0,-1.0224609 -0.234375,-1.7988281 -0.703125,-2.3320312 -0.46289,-0.5302735 -1.040039,-0.796875 -1.734375,-0.796875 -0.703125,0 -1.286133,0.2666015 -1.746094,0.796875 -0.46289,0.524414 -0.691406,1.3183593 -0.691406,2.3789062 z m 19.415039,2.8007813 v 1.34765622 h -7.570312 c -0.0088,-0.33398437 0.04687,-0.65917968 0.164062,-0.97265625 0.19336,-0.51562497 0.503906,-1.02246097 0.925781,-1.52343747 0.427735,-0.4980469 1.042969,-1.078125 1.839844,-1.734375 1.248047,-1.022461 2.091797,-1.8310547 2.53125,-2.4257813 0.436524,-0.6005859 0.65625,-1.1630859 0.65625,-1.6875 0,-0.5625 -0.199219,-1.0341797 -0.597656,-1.4179687 -0.398438,-0.3808594 -0.919922,-0.5742184 -1.558594,-0.5742184 -0.679687,0 -1.224609,0.205078 -1.628906,0.6093746 -0.407227,0.4072266 -0.615234,0.9697266 -0.621094,1.6875 l -1.441406,-0.140625 c 0.09961,-1.078125 0.47168,-1.8984376 1.113281,-2.4609376 0.647461,-0.568359 1.514649,-0.855469 2.601563,-0.855469 1.101562,0 1.971679,0.304688 2.613281,0.914063 0.638672,0.6093749 0.960937,1.3652342 0.960937,2.2617186 0,0.4628906 -0.09375,0.9140625 -0.28125,1.359375 -0.1875,0.4394531 -0.500976,0.9023438 -0.9375,1.3945313 -0.430664,0.4863281 -1.154296,1.1572265 -2.167968,2.015625 -0.84375,0.703125 -1.388672,1.1835937 -1.628907,1.4414062 -0.234375,0.2519531 -0.430664,0.5039063 -0.585937,0.7617188 z m 9.029297,4.7109375 C 81.219391,2.3860937 80.563141,1.2435156 80.024078,-0.06898438 79.490875,-1.3814844 79.227203,-2.7408594 79.227203,-4.1471094 c 0,-1.2421875 0.199219,-2.4287109 0.597656,-3.5625 0.46875,-1.3125 1.189453,-2.6249996 2.167969,-3.9374996 h 1.007813 c -0.626954,1.086914 -1.040039,1.8603512 -1.242188,2.3203121 -0.322266,0.7207031 -0.571289,1.4707031 -0.75,2.25 -0.228516,0.9785156 -0.339844,1.9570313 -0.339844,2.9414063 0,2.5019531 0.776368,4.99804685 2.332032,7.5 z M 85.07193,0.00132812 V -11.447891 h 1.523437 V 0.00132812 Z m 4.236328,0 V -11.447891 h 1.523437 v 4.6992191 h 5.941407 v -4.6992191 h 1.523437 V 0.00132812 H 96.773102 V -5.4010156 h -5.941407 v 5.40234372 z m 11.446292,0 V -11.447891 h 4.30078 c 0.87304,0 1.57324,0.117188 2.09765,0.351563 0.53028,0.228515 0.94336,0.583008 1.24219,1.066406 0.2959,0.4863282 0.44531,0.9902345 0.44531,1.5117189 0,0.4863281 -0.13476,0.946289 -0.39843,1.3828125 -0.2666,0.430664 -0.66504,0.7792968 -1.19532,1.0429687 0.68555,0.2050781 1.21875,0.5507813 1.59375,1.0429688 0.375,0.4863281 0.5625,1.0634765 0.5625,1.734375 0,0.5332031 -0.11425,1.0283203 -0.33984,1.4882812 -0.22852,0.4628906 -0.50977,0.8173828 -0.84375,1.06640627 -0.33691,0.25195313 -0.75586,0.44238282 -1.25391,0.57421875 -0.50097,0.12597657 -1.11328,0.1875 -1.83984,0.1875 z m 1.51172,-6.64453122 h 2.48437 c 0.6709,0 1.15137,-0.041016 1.44141,-0.1289063 0.38086,-0.1171875 0.6709,-0.3076172 0.86718,-0.5742187 0.19336,-0.2636719 0.29297,-0.5976563 0.29297,-0.9960938 0,-0.375 -0.0908,-0.7060547 -0.26953,-0.9960937 -0.18164,-0.2871094 -0.44238,-0.4863282 -0.78515,-0.5976563 -0.33692,-0.1083981 -0.91407,-0.1640621 -1.73438,-0.1640621 h -2.29687 z m 0,5.296875 h 2.85937 c 0.4834,0 0.82617,-0.017578 1.03125,-0.058594 0.34277,-0.061523 0.63281,-0.1640625 0.86719,-0.3046875 0.23437,-0.1464844 0.4248,-0.3632812 0.57422,-0.6445312 0.15527,-0.28125 0.23437,-0.600586 0.23437,-0.9609375 0,-0.4277344 -0.11133,-0.7998047 -0.32812,-1.1132813 -0.21973,-0.3193359 -0.52442,-0.5419922 -0.91407,-0.6679687 -0.38378,-0.1230469 -0.94336,-0.1875 -1.67578,-0.1875 h -2.64843 z m 9.96972,4.7109375 h -1.00781 c 1.55273,-2.50195315 2.33203,-4.9980469 2.33203,-7.5 0,-0.984375 -0.11426,-1.9570313 -0.33984,-2.9179688 -0.17285,-0.7792969 -0.41895,-1.5292969 -0.73828,-2.25 -0.20508,-0.46875 -0.6211,-1.2480466 -1.25391,-2.3437496 h 1.00781 c 0.97559,1.3125 1.69922,2.6249996 2.16797,3.9374996 0.39844,1.1337891 0.59766,2.3203125 0.59766,3.5625 0,1.40625 -0.26953,2.765625 -0.8086,4.07812502 -0.53906,1.31249998 -1.19238,2.45507808 -1.95703,3.43359378 z m 0,0"
       style="fill:#000000;fill-opacity:1;fill-rule:nonzero;stroke:none"
       aria-label="scenario 2 (IHB)"
       transform="matrix(1.3333333,0,0,1.3333333,233.07467,63.646667)" /><path
       id="path32"
       d="m 3000,3096 h 415.5 m -2636,0.5 560,-1492 560,-368.5 560,-55.5 560,23 560,-5.5"
       style="fill:none;stroke:#3387bd;stroke-width:10;stroke-linecap:butt;stroke-linejoin:miter;stroke-miterlimit:3.8;stroke-dasharray:none;stroke-opacity:1"
       transform="matrix(0.13333333,0,0,-0.13333333,0,469.33333)" /><path
       id="path33"
       d="m 779.5,2378.5 v 278 m -15.5,-278 h 31 m -31,278 h 31 M 1339.5,1325 v 85.5 M 1324,1325 h 31 m -31,85.5 h 31 m 544.5,-302 v 33.5 m -15.5,-33.5 h 31 m -31,33.5 h 31 m 544.5,-68.5 v 23.5 m -15.5,-23.5 h 31 m -31,23.5 h 31 m 544.5,-4 v 26 m -15.5,-26 h 31 m -31,26 h 31 m 544.5,-15.5 v 27.5 m -15.5,-27.5 h 31 m -31,27.5 h 31"
       style="fill:none;stroke:#3387bd;stroke-width:10;stroke-linecap:butt;stroke-linejoin:miter;stroke-miterlimit:3.8;stroke-dasharray:none;stroke-opacity:1"
       transform="matrix(0.13333333,0,0,-0.13333333,0,469.33333)" /><path
       id="path34"
       d="m 779.5,2501.75 v 31.5"
       style="fill:none;stroke:#3387bd;stroke-width:10;stroke-linecap:butt;stroke-linejoin:miter;stroke-miterlimit:3.8;stroke-dasharray:none;stroke-opacity:1"
       transform="matrix(0.13333333,0,0,-0.13333333,0,469.33333)" /><path
       id="path35"
       d="m 763.75,2517.5 h 31.5"
       style="fill:none;stroke:#3387bd;stroke-width:10;stroke-linecap:butt;stroke-linejoin:miter;stroke-miterlimit:3.8;stroke-dasharray:none;stroke-opacity:1"
       transform="matrix(0.13333333,0,0,-0.13333333,0,469.33333)" /><path
       id="path36"
       d="m 1339.5,1351.75 v 31.5"
       style="fill:none;stroke:#3387bd;stroke-width:10;stroke-linecap:butt;stroke-linejoin:miter;stroke-miterlimit:3.8;stroke-dasharray:none;stroke-opacity:1"
       transform="matrix(0.13333333,0,0,-0.13333333,0,469.33333)" /><path
       id="path37"
       d="m 1323.75,1367.5 h 31.5"
       style="fill:none;stroke:#3387bd;stroke-width:10;stroke-linecap:butt;stroke-linejoin:miter;stroke-miterlimit:3.8;stroke-dasharray:none;stroke-opacity:1"
       transform="matrix(0.13333333,0,0,-0.13333333,0,469.33333)" /><path
       id="path38"
       d="m 1899.5,1109.25 v 31.5"
       style="fill:none;stroke:#3387bd;stroke-width:10;stroke-linecap:butt;stroke-linejoin:miter;stroke-miterlimit:3.8;stroke-dasharray:none;stroke-opacity:1"
       transform="matrix(0.13333333,0,0,-0.13333333,0,469.33333)" /><path
       id="path39"
       d="m 1883.75,1125 h 31.5"
       style="fill:none;stroke:#3387bd;stroke-width:10;stroke-linecap:butt;stroke-linejoin:miter;stroke-miterlimit:3.8;stroke-dasharray:none;stroke-opacity:1"
       transform="matrix(0.13333333,0,0,-0.13333333,0,469.33333)" /><path
       id="path40"
       d="m 2459.5,1069.25 v 31.5"
       style="fill:none;stroke:#3387bd;stroke-width:10;stroke-linecap:butt;stroke-linejoin:miter;stroke-miterlimit:3.8;stroke-dasharray:none;stroke-opacity:1"
       transform="matrix(0.13333333,0,0,-0.13333333,0,469.33333)" /><path
       id="path41"
       d="m 2443.75,1085 h 31.5"
       style="fill:none;stroke:#3387bd;stroke-width:10;stroke-linecap:butt;stroke-linejoin:miter;stroke-miterlimit:3.8;stroke-dasharray:none;stroke-opacity:1"
       transform="matrix(0.13333333,0,0,-0.13333333,0,469.33333)" /><path
       id="path42"
       d="m 3019.5,1090.25 v 31.5"
       style="fill:none;stroke:#3387bd;stroke-width:10;stroke-linecap:butt;stroke-linejoin:miter;stroke-miterlimit:3.8;stroke-dasharray:none;stroke-opacity:1"
       transform="matrix(0.13333333,0,0,-0.13333333,0,469.33333)" /><path
       id="path43"
       d="m 3003.75,1106 h 31.5"
       style="fill:none;stroke:#3387bd;stroke-width:10;stroke-linecap:butt;stroke-linejoin:miter;stroke-miterlimit:3.8;stroke-dasharray:none;stroke-opacity:1"
       transform="matrix(0.13333333,0,0,-0.13333333,0,469.33333)" /><path
       id="path44"
       d="m 3579.5,1101.75 v 31.5"
       style="fill:none;stroke:#3387bd;stroke-width:10;stroke-linecap:butt;stroke-linejoin:miter;stroke-miterlimit:3.8;stroke-dasharray:none;stroke-opacity:1"
       transform="matrix(0.13333333,0,0,-0.13333333,0,469.33333)" /><path
       id="path45"
       d="m 3563.75,1117.5 h 31.5"
       style="fill:none;stroke:#3387bd;stroke-width:10;stroke-linecap:butt;stroke-linejoin:miter;stroke-miterlimit:3.8;stroke-dasharray:none;stroke-opacity:1"
       transform="matrix(0.13333333,0,0,-0.13333333,0,469.33333)" /><path
       id="path46"
       d="m 779.5,2955 v 283 M 764,2955 h 31 m -31,283 h 31 m 544.5,-1681 v 94.5 M 1324,1557 h 31 m -31,94.5 h 31 M 1899.5,1219 v 34 m -15.5,-34 h 31 m -31,34 h 31 m 544.5,-85.5 v 26 m -15.5,-26 h 31 m -31,26 h 31 m 544.5,-5 v 29.5 m -15.5,-29.5 h 31 m -31,29.5 h 31 m 544.5,-32.5 v 24.5 m -15.5,-24.5 h 31 m -31,24.5 h 31"
       style="fill:none;stroke:#3387bd;stroke-width:10;stroke-linecap:butt;stroke-linejoin:miter;stroke-miterlimit:3.8;stroke-dasharray:none;stroke-opacity:1"
       transform="matrix(0.13333333,0,0,-0.13333333,0,469.33333)" /><path
       id="path47"
       d="m 779.5,3080.75 v 31.5"
       style="fill:none;stroke:#3387bd;stroke-width:10;stroke-linecap:butt;stroke-linejoin:miter;stroke-miterlimit:3.8;stroke-dasharray:none;stroke-opacity:1"
       transform="matrix(0.13333333,0,0,-0.13333333,0,469.33333)" /><path
       id="path48"
       d="m 763.75,3096.5 h 31.5"
       style="fill:none;stroke:#3387bd;stroke-width:10;stroke-linecap:butt;stroke-linejoin:miter;stroke-miterlimit:3.8;stroke-dasharray:none;stroke-opacity:1"
       transform="matrix(0.13333333,0,0,-0.13333333,0,469.33333)" /><path
       id="path49"
       d="m 1339.5,1588.75 v 31.5"
       style="fill:none;stroke:#3387bd;stroke-width:10;stroke-linecap:butt;stroke-linejoin:miter;stroke-miterlimit:3.8;stroke-dasharray:none;stroke-opacity:1"
       transform="matrix(0.13333333,0,0,-0.13333333,0,469.33333)" /><path
       id="path50"
       d="m 1323.75,1604.5 h 31.5"
       style="fill:none;stroke:#3387bd;stroke-width:10;stroke-linecap:butt;stroke-linejoin:miter;stroke-miterlimit:3.8;stroke-dasharray:none;stroke-opacity:1"
       transform="matrix(0.13333333,0,0,-0.13333333,0,469.33333)" /><path
       id="path51"
       d="m 1899.5,1220.25 v 31.5"
       style="fill:none;stroke:#3387bd;stroke-width:10;stroke-linecap:butt;stroke-linejoin:miter;stroke-miterlimit:3.8;stroke-dasharray:none;stroke-opacity:1"
       transform="matrix(0.13333333,0,0,-0.13333333,0,469.33333)" /><path
       id="path52"
       d="m 1883.75,1236 h 31.5"
       style="fill:none;stroke:#3387bd;stroke-width:10;stroke-linecap:butt;stroke-linejoin:miter;stroke-miterlimit:3.8;stroke-dasharray:none;stroke-opacity:1"
       transform="matrix(0.13333333,0,0,-0.13333333,0,469.33333)" /><path
       id="path53"
       d="m 2459.5,1164.75 v 31.5"
       style="fill:none;stroke:#3387bd;stroke-width:10;stroke-linecap:butt;stroke-linejoin:miter;stroke-miterlimit:3.8;stroke-dasharray:none;stroke-opacity:1"
       transform="matrix(0.13333333,0,0,-0.13333333,0,469.33333)" /><path
       id="path54"
       d="m 2443.75,1180.5 h 31.5"
       style="fill:none;stroke:#3387bd;stroke-width:10;stroke-linecap:butt;stroke-linejoin:miter;stroke-miterlimit:3.8;stroke-dasharray:none;stroke-opacity:1"
       transform="matrix(0.13333333,0,0,-0.13333333,0,469.33333)" /><path
       id="path55"
       d="m 3019.5,1187.75 v 31.5"
       style="fill:none;stroke:#3387bd;stroke-width:10;stroke-linecap:butt;stroke-linejoin:miter;stroke-miterlimit:3.8;stroke-dasharray:none;stroke-opacity:1"
       transform="matrix(0.13333333,0,0,-0.13333333,0,469.33333)" /><path
       id="path56"
       d="m 3003.75,1203.5 h 31.5"
       style="fill:none;stroke:#3387bd;stroke-width:10;stroke-linecap:butt;stroke-linejoin:miter;stroke-miterlimit:3.8;stroke-dasharray:none;stroke-opacity:1"
       transform="matrix(0.13333333,0,0,-0.13333333,0,469.33333)" /><path
       id="path57"
       d="m 3579.5,1182.25 v 31.5"
       style="fill:none;stroke:#3387bd;stroke-width:10;stroke-linecap:butt;stroke-linejoin:miter;stroke-miterlimit:3.8;stroke-dasharray:none;stroke-opacity:1"
       transform="matrix(0.13333333,0,0,-0.13333333,0,469.33333)" /><path
       id="path58"
       d="m 3563.75,1198 h 31.5"
       style="fill:none;stroke:#3387bd;stroke-width:10;stroke-linecap:butt;stroke-linejoin:miter;stroke-miterlimit:3.8;stroke-dasharray:none;stroke-opacity:1"
       transform="matrix(0.13333333,0,0,-0.13333333,0,469.33333)" /><path
       id="path59"
       d="M 751.5,3367.5 V 512 h 2856 v 2855.5 z"
       style="fill:none;stroke:#000000;stroke-width:10;stroke-linecap:butt;stroke-linejoin:miter;stroke-miterlimit:3.8;stroke-dasharray:none;stroke-opacity:1"
       transform="matrix(0.13333333,0,0,-0.13333333,0,469.33333)" /><path
       style="opacity:0.2;fill:#3387bd;stroke:none;stroke-width:1.253;stroke-dasharray:3.759, 1.253;fill-opacity:1"
       d="m 103.95933,58.041275 74.77776,197.726565 74.24133,48.81475 74.67048,7.72453 74.88505,-3.11127 74.4559,0.64371 0.21457,10.08481 -74.88504,1.71656 -74.77777,2.78942 -74.67047,-5.25698 -74.56319,-32.72197 -74.34862,-153.52508 z"
       id="path60" /><path
       style="opacity:0.4;fill:none;fill-opacity:1;stroke:#000000;stroke-width:2;stroke-dasharray:4,2;stroke-opacity:1;marker-end:url(#Triangle);stroke-dashoffset:0"
       d="m 327.71777,249.64602 0,46.26527"
       id="path61"
       sodipodi:nodetypes="cc" /><g
       transform="matrix(22.36055,0,0,22.36055,143.72084,112.11633)"
       id="g19"
       clip-path="url(#clipPath24)"><g
         transform="translate(7.0198853,1.9410269)"
         id="g2"><path
           fill="#000000"
           stroke="none"
           paint-order="stroke fill markers"
           d="M 0.38,-0.055 Q 0.328,0.011 0.246,0.011 0.154,0.011 0.09,-0.062 0.034,-0.127 0.034,-0.215 q 0,-0.104 0.078,-0.172 0.063,-0.055 0.145,-0.055 0.076,0 0.126,0.062 v -0.216 q 0,-0.039 -0.014,-0.048 H 0.368 Q 0.355,-0.652 0.305,-0.652 v -0.031 l 0.144,-0.011 v 0.607 q 0,0.039 0.015,0.048 h 0.001 q 0.014,0.008 0.062,0.008 V 0 L 0.38,0.011 v -0.066 m 0,-0.268 q 0,-0.02 -0.009,-0.033 L 0.369,-0.36 q -0.041,-0.06 -0.108,-0.06 -0.07,0 -0.113,0.064 -0.031,0.048 -0.031,0.142 0,0.093 0.029,0.139 0.04,0.064 0.105,0.064 0.072,0 0.116,-0.066 L 0.369,-0.081 Q 0.38,-0.102 0.38,-0.118 Z"
           id="path2-4" /></g><g
         transform="translate(7.5758853,1.9410269)"
         id="g3"><path
           fill="#000000"
           stroke="none"
           paint-order="stroke fill markers"
           d="m 0.287,-0.683 -0.104,0.422 q 0.043,-0.017 0.111,-0.093 0.079,-0.088 0.146,-0.088 0.048,0 0.064,0.04 0.004,0.011 0.004,0.023 0,0.041 -0.034,0.057 -0.011,0.004 -0.021,0.004 -0.031,0 -0.037,-0.027 -0.001,-0.004 -0.001,-0.008 0,-0.028 0.025,-0.044 l 0.001,-0.001 v 0 Q 0.454,-0.406 0.472,-0.407 L 0.468,-0.411 Q 0.46,-0.417 0.447,-0.419 0.445,-0.42 0.438,-0.42 q -0.053,0 -0.129,0.081 -0.004,0.004 -0.008,0.009 l -0.006,0.006 q -0.052,0.054 -0.086,0.074 0.148,0.019 0.148,0.105 0,0.014 -0.004,0.031 -0.008,0.032 -0.008,0.056 0,0.047 0.032,0.047 0.046,0 0.074,-0.083 0.007,-0.017 0.013,-0.041 0.008,-0.017 0.014,-0.018 0.012,0 0.012,0.01 0,0.016 -0.019,0.065 -0.008,0.02 -0.017,0.036 -0.032,0.053 -0.079,0.053 -0.055,0 -0.08,-0.048 -0.012,-0.023 -0.012,-0.051 0,-0.011 0.004,-0.035 Q 0.29,-0.133 0.29,-0.144 0.29,-0.207 0.2,-0.225 0.187,-0.228 0.174,-0.229 0.124,-0.021 0.118,-0.01 0.108,0.009 0.084,0.011 0.06,0.011 0.056,-0.01 0.055,-0.014 0.055,-0.017 q 0,-0.008 0.004,-0.022 l 0.145,-0.576 0.003,-0.02 q 0,-0.011 -0.014,-0.014 v 0 q -0.012,-0.003 -0.036,-0.003 -0.022,0 -0.024,-0.012 0,-0.017 0.019,-0.02 l 0.122,-0.01 q 0.013,0 0.013,0.011 z"
           id="path3-8" /></g><g
         transform="matrix(0.7,0,0,0.7,8.0968853,2.0910269)"
         id="g4"><path
           fill="#000000"
           stroke="none"
           paint-order="stroke fill markers"
           d="M 0.582,-0.258 0.554,0 H 0.033 v -0.031 h 0.024 q 0.065,0 0.075,-0.017 0.004,-0.007 0.004,-0.03 v -0.527 q 0,-0.03 -0.012,-0.038 Q 0.11,-0.652 0.057,-0.652 H 0.033 v -0.031 q 0.035,0.003 0.152,0.003 0.132,0 0.168,-0.003 v 0.031 H 0.32 q -0.08,0 -0.091,0.02 -0.004,0.007 -0.004,0.028 v 0.533 q 0,0.03 0.011,0.035 h 0.001 q 0.009,0.005 0.037,0.005 h 0.082 q 0.141,0 0.18,-0.113 0.013,-0.037 0.021,-0.114 z"
           id="path4-1" /></g><g
         transform="matrix(0.7,0,0,0.7,8.5343853,2.0910269)"
         id="g5"><path
           fill="#000000"
           stroke="none"
           paint-order="stroke fill markers"
           d="m 0.665,-0.681 v 0.237 q 0,0.021 -0.006,0.023 v 0 q -0.003,0.001 -0.01,0.001 -0.013,0 -0.015,-0.009 0,-0.002 -0.001,-0.008 -0.019,-0.139 -0.108,-0.202 -0.05,-0.035 -0.11,-0.035 -0.086,0 -0.153,0.056 -0.016,0.014 -0.03,0.03 l -0.001,0.001 q -0.072,0.087 -0.072,0.246 0,0.23 0.147,0.305 0.054,0.027 0.11,0.027 0.097,0 0.162,-0.071 0.057,-0.062 0.062,-0.154 0.001,-0.015 0.012,-0.016 0.013,0 0.013,0.017 0,0.093 -0.067,0.168 -0.077,0.087 -0.194,0.087 -0.135,0 -0.235,-0.096 -0.105,-0.1 -0.112,-0.248 -0.001,-0.01 -0.001,-0.02 0,-0.148 0.1,-0.254 0.095,-0.101 0.228,-0.108 0.01,-0.001 0.02,-0.001 0.092,0 0.167,0.069 l 0.017,0.017 0.05,-0.074 q 0.008,-0.012 0.016,-0.012 0.01,0.009 0.011,0.024 z"
           id="path5-2" /></g><rect
         fill="#000000"
         stroke="none"
         x="7.0198855"
         y="2.3475354"
         width="2.0199001"
         height="0.039999001"
         id="rect5" /><g
         transform="translate(7.4918353,3.3034859)"
         id="g6"><path
           fill="#000000"
           stroke="none"
           paint-order="stroke fill markers"
           d="M 0.38,-0.055 Q 0.328,0.011 0.246,0.011 0.154,0.011 0.09,-0.062 0.034,-0.127 0.034,-0.215 q 0,-0.104 0.078,-0.172 0.063,-0.055 0.145,-0.055 0.076,0 0.126,0.062 v -0.216 q 0,-0.039 -0.014,-0.048 H 0.368 Q 0.355,-0.652 0.305,-0.652 v -0.031 l 0.144,-0.011 v 0.607 q 0,0.039 0.015,0.048 h 0.001 q 0.014,0.008 0.062,0.008 V 0 L 0.38,0.011 v -0.066 m 0,-0.268 q 0,-0.02 -0.009,-0.033 L 0.369,-0.36 q -0.041,-0.06 -0.108,-0.06 -0.07,0 -0.113,0.064 -0.031,0.048 -0.031,0.142 0,0.093 0.029,0.139 0.04,0.064 0.105,0.064 0.072,0 0.116,-0.066 L 0.369,-0.081 Q 0.38,-0.102 0.38,-0.118 Z"
           id="path6-8" /></g><g
         transform="translate(8.0478353,3.3034859)"
         id="g7"><path
           fill="#000000"
           stroke="none"
           paint-order="stroke fill markers"
           d="m 0.516,-0.683 -0.144,0.578 q -0.006,0.025 -0.006,0.048 0,0.046 0.03,0.046 0.038,0 0.064,-0.08 0.005,-0.017 0.012,-0.044 0.008,-0.017 0.014,-0.018 0.012,0 0.012,0.01 0,0.015 -0.018,0.07 Q 0.474,-0.056 0.468,-0.044 0.44,0.011 0.394,0.011 0.338,0.011 0.313,-0.037 0.306,-0.049 0.303,-0.064 0.24,0.011 0.173,0.011 0.098,0.011 0.062,-0.057 0.04,-0.097 0.04,-0.149 q 0,-0.108 0.075,-0.2 0.07,-0.084 0.152,-0.092 0.007,-0.001 0.014,-0.001 0.061,0 0.092,0.064 l 0.06,-0.237 0.003,-0.02 q 0,-0.011 -0.014,-0.014 -0.012,-0.003 -0.036,-0.003 -0.022,0 -0.024,-0.012 0,-0.017 0.014,-0.019 0.094,-0.011 0.127,-0.011 0.013,0 0.013,0.011 m -0.208,0.564 v 0 l 0.05,-0.196 q 0.003,-0.015 0.003,-0.017 0,-0.021 -0.018,-0.051 -0.022,-0.037 -0.061,-0.037 -0.052,0 -0.099,0.068 -0.009,0.013 -0.017,0.028 -0.029,0.058 -0.049,0.165 -0.006,0.034 -0.006,0.054 0,0.068 0.038,0.088 0.011,0.006 0.026,0.006 0.056,0 0.113,-0.071 0.014,-0.016 0.019,-0.033 v -0.001 q 0.001,-0.002 0.001,-0.003 z"
           id="path7-3" /></g><g
         transform="translate(9.2798511,2.6175349)"
         id="g8"><path
           fill="#000000"
           stroke="none"
           paint-order="stroke fill markers"
           d="M 0.687,-0.327 H 0.09 q -0.032,0 -0.034,-0.02 0,-0.02 0.033,-0.02 h 0.599 q 0.032,0 0.033,0.02 0,0.02 -0.034,0.02 m 10e-4,0.194 H 0.089 q -0.032,0 -0.033,-0.02 0,-0.02 0.034,-0.02 h 0.597 q 0.032,0 0.034,0.02 0,0.02 -0.033,0.02 z"
           id="path8-9" /></g><g
         transform="translate(10.335629,2.6175349)"
         id="g9"><path
           fill="#000000"
           stroke="none"
           paint-order="stroke fill markers"
           d="m 0.46,-0.32 q 0,0.146 -0.037,0.226 Q 0.364,0.018 0.249,0.022 0.158,0.022 0.103,-0.05 0.092,-0.063 0.084,-0.079 0.039,-0.162 0.039,-0.32 q 0,-0.147 0.037,-0.227 0.05,-0.112 0.162,-0.119 H 0.25 q 0.089,0 0.145,0.071 v 0.001 q 0.014,0.018 0.025,0.04 0.04,0.085 0.04,0.234 M 0.249,0 v 0 q 0.063,0 0.097,-0.061 0.014,-0.027 0.02,-0.064 0.011,-0.064 0.011,-0.207 0,-0.139 -0.01,-0.195 -0.018,-0.095 -0.092,-0.114 -0.013,-0.003 -0.026,-0.003 -0.07,0 -0.102,0.07 -0.011,0.024 -0.017,0.058 -0.008,0.054 -0.008,0.184 0,0.151 0.011,0.211 0.018,0.096 0.088,0.117 Q 0.235,0 0.249,0 Z"
           id="path9-9" /></g><g
         transform="translate(6.6894853,4.4284859)"
         id="g10"><path
           fill="#000000"
           stroke="none"
           paint-order="stroke fill markers"
           d="M 0.38,-0.055 Q 0.328,0.011 0.246,0.011 0.154,0.011 0.09,-0.062 0.034,-0.127 0.034,-0.215 q 0,-0.104 0.078,-0.172 0.063,-0.055 0.145,-0.055 0.076,0 0.126,0.062 v -0.216 q 0,-0.039 -0.014,-0.048 H 0.368 Q 0.355,-0.652 0.305,-0.652 v -0.031 l 0.144,-0.011 v 0.607 q 0,0.039 0.015,0.048 h 0.001 q 0.014,0.008 0.062,0.008 V 0 L 0.38,0.011 v -0.066 m 0,-0.268 q 0,-0.02 -0.009,-0.033 L 0.369,-0.36 q -0.041,-0.06 -0.108,-0.06 -0.07,0 -0.113,0.064 -0.031,0.048 -0.031,0.142 0,0.093 0.029,0.139 0.04,0.064 0.105,0.064 0.072,0 0.116,-0.066 L 0.369,-0.081 Q 0.38,-0.102 0.38,-0.118 Z"
           id="path10-9" /></g><g
         transform="translate(7.2454853,4.4284859)"
         id="g11"><path
           fill="#000000"
           stroke="none"
           paint-order="stroke fill markers"
           d="m 0.287,-0.683 -0.104,0.422 q 0.043,-0.017 0.111,-0.093 0.079,-0.088 0.146,-0.088 0.048,0 0.064,0.04 0.004,0.011 0.004,0.023 0,0.041 -0.034,0.057 -0.011,0.004 -0.021,0.004 -0.031,0 -0.037,-0.027 -0.001,-0.004 -0.001,-0.008 0,-0.028 0.025,-0.044 l 0.001,-0.001 v 0 Q 0.454,-0.406 0.472,-0.407 L 0.468,-0.411 Q 0.46,-0.417 0.447,-0.419 0.445,-0.42 0.438,-0.42 q -0.053,0 -0.129,0.081 -0.004,0.004 -0.008,0.009 l -0.006,0.006 q -0.052,0.054 -0.086,0.074 0.148,0.019 0.148,0.105 0,0.014 -0.004,0.031 -0.008,0.032 -0.008,0.056 0,0.047 0.032,0.047 0.046,0 0.074,-0.083 0.007,-0.017 0.013,-0.041 0.008,-0.017 0.014,-0.018 0.012,0 0.012,0.01 0,0.016 -0.019,0.065 -0.008,0.02 -0.017,0.036 -0.032,0.053 -0.079,0.053 -0.055,0 -0.08,-0.048 -0.012,-0.023 -0.012,-0.051 0,-0.011 0.004,-0.035 Q 0.29,-0.133 0.29,-0.144 0.29,-0.207 0.2,-0.225 0.187,-0.228 0.174,-0.229 0.124,-0.021 0.118,-0.01 0.108,0.009 0.084,0.011 0.06,0.011 0.056,-0.01 0.055,-0.014 0.055,-0.017 q 0,-0.008 0.004,-0.022 l 0.145,-0.576 0.003,-0.02 q 0,-0.011 -0.014,-0.014 v 0 q -0.012,-0.003 -0.036,-0.003 -0.022,0 -0.024,-0.012 0,-0.017 0.019,-0.02 l 0.122,-0.01 q 0.013,0 0.013,0.011 z"
           id="path11-6" /></g><g
         transform="matrix(0.7,0,0,0.7,7.7664853,4.5784859)"
         id="g12"><path
           fill="#000000"
           stroke="none"
           paint-order="stroke fill markers"
           d="m 0.225,-0.605 v 0 0.527 q 0,0.03 0.012,0.038 h 0.001 v 0 h 0.001 v 0.001 H 0.24 q 0.015,0.008 0.067,0.008 H 0.333 V 0 Q 0.298,-0.003 0.18,-0.003 0.063,-0.003 0.028,0 v -0.031 h 0.026 q 0.067,0 0.077,-0.017 v 0 q 0.005,-0.008 0.005,-0.03 v -0.527 q 0,-0.03 -0.012,-0.038 H 0.123 Q 0.108,-0.652 0.054,-0.652 H 0.028 v -0.031 q 0.035,0.003 0.153,0.003 0.117,0 0.152,-0.003 v 0.031 H 0.307 q -0.067,0 -0.077,0.017 v 0 q -0.005,0.008 -0.005,0.03 z"
           id="path12-1" /></g><g
         transform="matrix(0.7,0,0,0.7,8.0191853,4.5784859)"
         id="g13"><path
           fill="#000000"
           stroke="none"
           paint-order="stroke fill markers"
           d="m 0.613,-0.605 v 0.527 q 0,0.03 0.012,0.038 v 0 q 0.015,0.009 0.067,0.009 H 0.716 V 0 Q 0.681,-0.003 0.568,-0.003 0.456,-0.003 0.421,0 v -0.031 h 0.024 q 0.065,0 0.075,-0.017 0.004,-0.007 0.004,-0.03 V -0.34 H 0.225 v 0.262 q 0,0.03 0.012,0.038 0.014,0.009 0.067,0.009 H 0.328 V 0 Q 0.293,-0.003 0.18,-0.003 0.068,-0.003 0.033,0 v -0.031 h 0.024 q 0.065,0 0.075,-0.017 0.004,-0.007 0.004,-0.03 v -0.527 q 0,-0.03 -0.012,-0.038 Q 0.11,-0.652 0.057,-0.652 H 0.033 v -0.031 q 0.035,0.003 0.148,0.003 0.112,0 0.147,-0.003 v 0.031 H 0.304 q -0.065,0 -0.075,0.017 -0.004,0.007 -0.004,0.03 v 0.234 h 0.299 v -0.234 q 0,-0.03 -0.012,-0.038 v 0 Q 0.497,-0.652 0.445,-0.652 H 0.421 v -0.031 q 0.035,0.003 0.148,0.003 0.112,0 0.147,-0.003 v 0.031 H 0.692 q -0.065,0 -0.075,0.017 -0.004,0.007 -0.004,0.03 z"
           id="path13-7" /></g><g
         transform="matrix(0.7,0,0,0.7,8.5441853,4.5784859)"
         id="g14"><path
           fill="#000000"
           stroke="none"
           paint-order="stroke fill markers"
           d="m 0.222,-0.366 h 0.145 q 0.097,0 0.14,-0.075 0.02,-0.035 0.02,-0.073 0,-0.061 -0.042,-0.103 Q 0.45,-0.652 0.395,-0.652 H 0.271 q -0.039,0 -0.046,0.012 v 0.001 0 0.001 q -0.003,0.006 -0.003,0.026 v 0.246 m 0.236,0.009 v 0 q 0.102,0.011 0.158,0.08 0.035,0.043 0.035,0.094 0,0.079 -0.07,0.133 Q 0.518,0 0.428,0 H 0.036 V -0.031 H 0.06 q 0.065,0 0.075,-0.017 0.004,-0.007 0.004,-0.03 v -0.527 q 0,-0.03 -0.012,-0.038 Q 0.113,-0.652 0.06,-0.652 H 0.036 v -0.031 h 0.366 q 0.111,0 0.178,0.068 0.044,0.046 0.044,0.101 0,0.073 -0.075,0.121 -0.04,0.026 -0.091,0.036 m -0.062,0.326 q 0.09,0 0.133,-0.074 0.022,-0.037 0.022,-0.079 0,-0.072 -0.046,-0.12 -0.037,-0.04 -0.095,-0.04 H 0.222 v 0.273 q 0,0.03 0.011,0.035 h 0.001 q 0.009,0.005 0.037,0.005 z"
           id="path14-3" /></g><rect
         fill="#000000"
         stroke="none"
         x="6.6894855"
         y="4.8349943"
         width="2.3503001"
         height="0.039999001"
         id="rect14" /><g
         transform="translate(7.3266353,5.7909449)"
         id="g15"><path
           fill="#000000"
           stroke="none"
           paint-order="stroke fill markers"
           d="M 0.38,-0.055 Q 0.328,0.011 0.246,0.011 0.154,0.011 0.09,-0.062 0.034,-0.127 0.034,-0.215 q 0,-0.104 0.078,-0.172 0.063,-0.055 0.145,-0.055 0.076,0 0.126,0.062 v -0.216 q 0,-0.039 -0.014,-0.048 H 0.368 Q 0.355,-0.652 0.305,-0.652 v -0.031 l 0.144,-0.011 v 0.607 q 0,0.039 0.015,0.048 h 0.001 q 0.014,0.008 0.062,0.008 V 0 L 0.38,0.011 v -0.066 m 0,-0.268 q 0,-0.02 -0.009,-0.033 L 0.369,-0.36 q -0.041,-0.06 -0.108,-0.06 -0.07,0 -0.113,0.064 -0.031,0.048 -0.031,0.142 0,0.093 0.029,0.139 0.04,0.064 0.105,0.064 0.072,0 0.116,-0.066 L 0.369,-0.081 Q 0.38,-0.102 0.38,-0.118 Z"
           id="path15-9" /></g><g
         transform="translate(7.8826353,5.7909449)"
         id="g16"><path
           fill="#000000"
           stroke="none"
           paint-order="stroke fill markers"
           d="m 0.516,-0.683 -0.144,0.578 q -0.006,0.025 -0.006,0.048 0,0.046 0.03,0.046 0.038,0 0.064,-0.08 0.005,-0.017 0.012,-0.044 0.008,-0.017 0.014,-0.018 0.012,0 0.012,0.01 0,0.015 -0.018,0.07 Q 0.474,-0.056 0.468,-0.044 0.44,0.011 0.394,0.011 0.338,0.011 0.313,-0.037 0.306,-0.049 0.303,-0.064 0.24,0.011 0.173,0.011 0.098,0.011 0.062,-0.057 0.04,-0.097 0.04,-0.149 q 0,-0.108 0.075,-0.2 0.07,-0.084 0.152,-0.092 0.007,-0.001 0.014,-0.001 0.061,0 0.092,0.064 l 0.06,-0.237 0.003,-0.02 q 0,-0.011 -0.014,-0.014 -0.012,-0.003 -0.036,-0.003 -0.022,0 -0.024,-0.012 0,-0.017 0.014,-0.019 0.094,-0.011 0.127,-0.011 0.013,0 0.013,0.011 m -0.208,0.564 v 0 l 0.05,-0.196 q 0.003,-0.015 0.003,-0.017 0,-0.021 -0.018,-0.051 -0.022,-0.037 -0.061,-0.037 -0.052,0 -0.099,0.068 -0.009,0.013 -0.017,0.028 -0.029,0.058 -0.049,0.165 -0.006,0.034 -0.006,0.054 0,0.068 0.038,0.088 0.011,0.006 0.026,0.006 0.056,0 0.113,-0.071 0.014,-0.016 0.019,-0.033 v -0.001 q 0.001,-0.002 0.001,-0.003 z"
           id="path16-8" /></g><g
         transform="translate(9.2798511,5.1049939)"
         id="g17"><path
           fill="#000000"
           stroke="none"
           paint-order="stroke fill markers"
           d="M 0.687,-0.327 H 0.09 q -0.032,0 -0.034,-0.02 0,-0.02 0.033,-0.02 h 0.599 q 0.032,0 0.033,0.02 0,0.02 -0.034,0.02 m 10e-4,0.194 H 0.089 q -0.032,0 -0.033,-0.02 0,-0.02 0.034,-0.02 h 0.597 q 0.032,0 0.034,0.02 0,0.02 -0.033,0.02 z"
           id="path17-4" /></g><g
         transform="translate(10.335629,5.1049939)"
         id="g18"><path
           fill="#000000"
           stroke="none"
           paint-order="stroke fill markers"
           d="m 0.46,-0.32 q 0,0.146 -0.037,0.226 Q 0.364,0.018 0.249,0.022 0.158,0.022 0.103,-0.05 0.092,-0.063 0.084,-0.079 0.039,-0.162 0.039,-0.32 q 0,-0.147 0.037,-0.227 0.05,-0.112 0.162,-0.119 H 0.25 q 0.089,0 0.145,0.071 v 0.001 q 0.014,0.018 0.025,0.04 0.04,0.085 0.04,0.234 M 0.249,0 v 0 q 0.063,0 0.097,-0.061 0.014,-0.027 0.02,-0.064 0.011,-0.064 0.011,-0.207 0,-0.139 -0.01,-0.195 -0.018,-0.095 -0.092,-0.114 -0.013,-0.003 -0.026,-0.003 -0.07,0 -0.102,0.07 -0.011,0.024 -0.017,0.058 -0.008,0.054 -0.008,0.184 0,0.151 0.011,0.211 0.018,0.096 0.088,0.117 Q 0.235,0 0.249,0 Z"
           id="path18-0" /></g></g></g></svg>
